<?xml version="1.0" standalone="no"?>
<!DOCTYPE svg PUBLIC "-//W3C//DTD SVG 1.1//EN" "http://www.w3.org/Graphics/SVG/1.1/DTD/svg11.dtd" >
<svg xmlns="http://www.w3.org/2000/svg" xmlns:xlink="http://www.w3.org/1999/xlink" version="1.1">
<metadata>
Created by FontForge 20170731 at Mon Jul 23 19:35:36 2018
 By Aleksey,,,
Font Awesome
</metadata>
<defs>
<font id="FontAwesome5BrandsRegular" horiz-adv-x="448" >
  <font-face 
    font-family="Font Awesome 5 Brands"
    font-weight="400"
    font-stretch="normal"
    units-per-em="512"
    panose-1="2 0 5 3 0 0 0 0 0 0"
    ascent="448"
    descent="-64"
    bbox="-0.384615 -67.25 642 448.286"
    underline-thickness="0"
    underline-position="5"
    unicode-range="U+F081-F63F"
  />
<missing-glyph horiz-adv-x="0" 
 />
    <glyph glyph-name=".notdef" horiz-adv-x="0" 
 />
    <glyph glyph-name=".null" horiz-adv-x="0" 
 />
    <glyph glyph-name="nonmarkingreturn" horiz-adv-x="170" 
 />
    <glyph glyph-name="twitter-square" unicode="&#xf081;" 
d="M400 416h-352q-20 0 -34 -14t-14 -34v-352q0 -20 14 -34t34 -14h352q20 0 34 14t14 34v352q0 20 -14 34t-34 14zM351 257v-8q0 -45 -21 -87q-23 -45 -63 -71q-45 -29 -102 -29q-55 0 -101 29h16q45 0 81 28q-21 0 -38 12.5t-23 32.5q16 -2 30 1q-23 5 -38 23t-15 42v1
q14 -8 30 -9q-14 9 -22 23.5t-8 32t9 32.5q25 -30 60 -48.5t76 -20.5q-5 22 3 40.5t24.5 29.5t36.5 11q28 0 47 -21q22 4 42 16q-8 -23 -29 -36q19 2 38 10q-14 -20 -33 -34z" />
    <glyph glyph-name="facebook-square" unicode="&#xf082;" 
d="M448 368v-352q0 -20 -14 -34t-34 -14h-85v177h60l9 68h-69v43q0 16 6 24q8 9 27 9h36v60q-21 3 -52 3q-40 0 -63.5 -23.5t-23.5 -65.5v-50h-61v-68h61v-177h-197q-20 0 -34 14t-14 34v352q0 20 14 34t34 14h352q20 0 34 -14t14 -34z" />
    <glyph glyph-name="linkedin" unicode="&#xf08c;" 
d="M416 416h-384q-13 0 -22.5 -9.5t-9.5 -22.5v-384q0 -13 9.5 -22.5t22.5 -9.5h384q13 0 22.5 9.5t9.5 22.5v384q0 13 -9.5 22.5t-22.5 9.5zM135 32h-66v214h67v-214h-1zM102 275q-16 0 -27 11.5t-11 27t11 27t27 11.5t27.5 -11.5t11.5 -27t-11.5 -27t-27.5 -11.5zM384 32
h-66v104q0 26 -5 38q-7 19 -30 19t-33 -17q-7 -13 -7 -38v-106h-66v214h64v-29h1q7 14 22 23q18 11 41 11q46 0 65 -29q14 -23 14 -73v-117z" />
    <glyph glyph-name="github-square" unicode="&#xf092;" 
d="M400 416h-352q-20 0 -34 -14t-14 -34v-352q0 -20 14 -34t34 -14h352q20 0 34 14t14 34v352q0 20 -14 34t-34 14zM277 32q-5 -1 -8 1.5t-3 6.5v56q0 21 -11 30q24 3 36 7q19 6 28 20q12 17 12 46q0 13 -5 22q-3 7 -12 17q2 7 3 16q1 15 -5 29q-9 3 -28 -7q-10 -5 -18 -10
v0q-20 5 -41.5 5t-41.5 -6l-18 11q-19 10 -28 7q-6 -14 -5 -29q1 -9 4 -16q-9 -9 -12.5 -17.5t-3.5 -21.5q0 -29 11 -46q9 -14 28 -20q11 -4 35 -7q-8 -7 -10 -22q-12 -5 -23 -4q-16 1 -26 18q-4 7 -10 11q-5 4 -11 5l-4 1q-10 0 -7 -5q2 -3 6 -5v0q7 -3 13 -14l5 -10
q5 -14 19 -19q10 -3 25 -3l12 2v-41q0 -4 -2.5 -6.5t-8.5 -1.5q-50 17 -81 60.5t-31 98.5q0 45 21 82t58.5 58t82.5 21t83 -21t60.5 -58t22.5 -82q0 -55 -30.5 -98.5t-80.5 -60.5zM179 93q-3 0 -3.5 2.5t3 3t4 -2t-3.5 -3.5zM170 94q0 -2 -3.5 -2t-3.5 2.5t3.5 2.5t3.5 -3z
M156 95q-1 -2 -4.5 -1t-2.5 3.5t4.5 1.5t2.5 -4zM144 101q-2 -2 -4.5 0.5t-1 4.5t4 -1t1.5 -4zM135 110q-2 -1 -4 1.5t0 4t4 -1.5t0 -4zM128 120q-1 -2 -3 0t-0.5 3.5t3.5 -0.5t0 -3zM121 127q0 -2 -2.5 -0.5t-1.5 2.5t3 0t1 -2z" />
    <glyph glyph-name="twitter" unicode="&#xf099;" horiz-adv-x="512" 
d="M459 296q1 -4 1 -13q0 -72 -35 -139q-36 -71 -101 -113q-71 -47 -163 -47q-88 0 -161 47q11 -1 25 -1q73 0 131 45q-35 0 -61.5 20.5t-36.5 51.5q10 -1 19 -1q14 0 28 3q-36 8 -60 37t-24 66v2q22 -13 47 -14q-21 15 -34 38t-13 50.5t15 52.5q39 -49 95.5 -78t120.5 -32
q-2 12 -2 24q0 28 14 52.5t38 38.5t52 14q23 0 42.5 -9t34.5 -24q36 7 67 25q-12 -37 -46 -58q30 4 60 17q-22 -32 -53 -55z" />
    <glyph glyph-name="facebook" unicode="&#xf09a;" 
d="M448 391v-398q0 -10 -7 -17.5t-18 -7.5h-114v174h58l9 67h-67v43q0 17 6 24q8 9 27 9h36v61q-21 2 -52 2q-39 0 -63 -23t-24 -66v-50h-58v-67h58v-174h-214q-11 0 -18 7.5t-7 17.5v398q0 11 7 18t18 7h398q10 0 17.5 -7t7.5 -18z" />
    <glyph glyph-name="github" unicode="&#xf09b;" horiz-adv-x="496" 
d="M166 51q0 -4 -5.5 -4.5t-5.5 3.5t5 4q3 0 4.5 -1t1.5 -2zM135 55q-1 -1 0.5 -2.5t3.5 -2.5t4 0t2.5 3.5t-4.5 4t-6 -2.5zM179 57q-5 -1 -4.5 -4t2 -3.5t3.5 -0.5q5 2 4.5 5t-5.5 3zM245 440q-69 0 -125 -32t-88 -88t-32 -124q0 -83 47 -148.5t123 -90.5q8 -2 12.5 2
t4.5 10l-1 61l-11 -1q-13 -2 -25 -1q-17 2 -29 9q-14 8 -19 23l-4 8q-4 9 -10 16q-7 9 -14 13l-5 4q-5 4 -4.5 7.5t11.5 3.5l7 -1q8 -3 15 -7q10 -7 16 -18q14 -25 40 -27q16 -2 33 6q3 22 16 34q-36 4 -54 10q-28 10 -42 31q-16 25 -16 70q0 19 5.5 31.5t17.5 27.5
q-4 9 -4 23q-2 22 7 44q9 3 27 -4q13 -5 29 -14l13 -9q30 9 62.5 9t63.5 -9l13 9q16 9 28 14q18 7 28 4q8 -22 7 -44q-1 -14 -5 -24q14 -15 19 -25q7 -14 7 -33q0 -45 -17 -71q-15 -20 -43 -30q-18 -6 -55 -10q17 -14 17 -46v-84q0 -6 4.5 -10t12.5 -2q75 25 121.5 90.5
t46.5 148.5q0 68 -34 125q-33 55 -91 87t-126 32zM97 95q-2 -2 1 -5t5 -1t-1 5t-5 1zM86 103q-1 -2 2.5 -4t4.5 0.5t-2 4t-5 -0.5zM119 68q-1 -1 -1 -3t2 -4q4 -4 7 -1q1 1 0.5 3t-2 3.5t-3.5 2t-3 -0.5zM107 82q-2 -1 0 -6q2 -1 3.5 -2t2.5 0q3 2 0 6q-1 2 -2.5 2.5
t-3.5 -0.5z" />
    <glyph glyph-name="pinterest" unicode="&#xf0d2;" horiz-adv-x="496" 
d="M496 192q0 -67 -33.5 -124t-90.5 -90.5t-124 -33.5q-38 0 -73 11q24 40 30 65l16 59q6 -12 22 -20t35 -8q36 0 65.5 20.5t46 55.5t16.5 76.5t-20 74.5t-55 51.5t-78 18.5q-51 0 -90 -21q-35 -20 -54.5 -54.5t-19.5 -74.5q0 -29 14.5 -57.5t36.5 -38.5q7 -3 8 3l7 28
q1 4 -2 7q-8 10 -13 25.5t-5 31.5q0 28 13.5 52.5t38.5 39.5q26 16 60 16q46 0 75 -28.5t29 -72.5q0 -50 -22.5 -82t-55.5 -32q-19 0 -30 13.5t-7 31.5q2 11 9 32q11 37 11 51.5t-8 24t-23 9.5q-19 0 -32 -17t-13 -43q0 -22 7 -37l-28 -123q-6 -25 -1 -71q-71 27 -114.5 90
t-43.5 141q0 67 33.5 124t90.5 90.5t124 33.5t124 -33.5t90.5 -90.5t33.5 -124z" />
    <glyph glyph-name="pinterest-square" unicode="&#xf0d3;" 
d="M448 368v-352q0 -20 -14 -34t-34 -14h-246q22 36 28 59l15 59q6 -12 22 -20.5t34 -8.5q37 1 66 21t45.5 55t16.5 76t-20 73.5t-55 51t-77 18.5q-51 0 -89 -21q-35 -20 -54 -54t-19 -74q0 -28 14 -56t36 -39q7 -3 8 4l7 27q1 4 -2 7q-8 10 -13 25.5t-5 30.5
q0 28 13.5 52.5t37.5 38.5q26 16 60 16q45 0 74 -28t29 -72q0 -49 -22.5 -80.5t-55.5 -31.5q-18 0 -29 13t-7 31q2 11 9 32q11 36 11 50q0 19 -11 28t-26.5 5.5t-26.5 -17.5q-11 -16 -11 -41q0 -22 7 -37l-14 -57q-15 -61 -17 -79q-3 -21 1 -56l3 -1h-89q-20 0 -34 14
t-14 34v352q0 20 14 34t34 14h352q20 0 34 -14t14 -34z" />
    <glyph glyph-name="google-plus-square" unicode="&#xf0d4;" 
d="M400 416h-352q-20 0 -34 -14t-14 -34v-352q0 -20 14 -34t34 -14h352q20 0 34 14t14 34v352q0 20 -14 34t-34 14zM164 92q-41 0 -70.5 29.5t-29.5 70.5t29.5 70.5t70.5 29.5q39 0 67 -26l-27 -26q-16 15 -41 15t-43 -18.5t-18 -44.5t18.5 -44.5t44 -18.5t41.5 16
q12 12 15 27h-57v34h94q2 -8 2 -16q0 -44 -26.5 -71t-69.5 -27zM384 174h-29v-29h-29v29h-29v29h29v29h29v-29h29v-29z" />
    <glyph glyph-name="google-plus-g" unicode="&#xf0d5;" horiz-adv-x="640" 
d="M386 220q3 -17 3 -32q0 -55 -23 -97.5t-65 -66.5t-96 -24q-52 0 -96.5 26t-70 70t-25.5 96t25.5 96t70 70t96.5 26q75 0 128 -50l-52 -50q-30 29 -76 29q-32 0 -59.5 -16t-43.5 -44t-16 -61t16 -61t43.5 -44t59.5 -16q35 0 61 15q21 12 34 34q11 17 14 33h-109v67h181z
M571 213v56h-56v-56h-55v-56h55v-56h56v56h56v56h-56z" />
    <glyph glyph-name="linkedin-in" unicode="&#xf0e1;" 
d="M100 -32h-93v299h93v-299zM54 308q-22 0 -38 16t-16 38t16 38t38 16t38 -16t16 -38t-16 -38t-38 -16zM448 -32h-93v146q0 36 -6 52q-11 27 -43 27t-45 -24q-10 -18 -10 -53v-148h-92v299h89v-41h1q10 20 32 33q24 16 56 16q65 0 91 -41q20 -33 20 -102v-164z" />
    <glyph glyph-name="github-alt" unicode="&#xf113;" horiz-adv-x="480" 
d="M186 119q0 -19 -9 -35q-10 -20 -27.5 -20t-28.5 20q-8 16 -8 35t8 36q11 19 28.5 19t27.5 -19q9 -17 9 -36zM480 170q0 -59 -17.5 -94.5t-54.5 -53.5q-31 -15 -78 -19q-27 -3 -79 -3h-13q-53 0 -81 3q-48 4 -80 19q-39 18 -57 53q-20 40 -20 95q0 65 42 113q-8 24 -8 49
q0 15 3 27q3 8 11 25q35 0 59.5 -8t49.5 -28q42 10 89 10q42 0 80 -9q25 20 49.5 27.5t58.5 7.5q8 -17 11 -25q4 -12 4 -27q0 -25 -8 -48q39 -46 39 -114zM416 119q0 35 -20 59t-54 24q-15 0 -44 -4l-12 -2q-21 -3 -45 -3t-45 3l-11 1q-30 5 -45 5q-34 0 -53.5 -24
t-20.5 -59q1 -59 49 -83q36 -18 102 -18h48q66 0 102 18q49 24 49 83zM333 174q-17 0 -28 -19q-9 -17 -9 -36t9 -35q11 -20 28.5 -20t27.5 20q9 16 9 35t-9 36q-10 19 -28 19z" />
    <glyph glyph-name="maxcdn" unicode="&#xf136;" horiz-adv-x="512" 
d="M461 5h-97l52 243q3 16 -5 25.5t-24 9.5h-49l-60 -278h-97l59 278h-83l-60 -278h-97l60 278l-45 96h372q30 0 55.5 -12t43 -33.5t23.5 -49t0 -56.5z" />
    <glyph glyph-name="html5" unicode="&#xf13b;" horiz-adv-x="384" 
d="M0 416l35 -396l157 -52l157 52l35 396h-384zM308 288h-184l5 -49h175l-13 -149l-98 -27l-100 27l-6 76h48l3 -38l54 -14l53 14l6 62h-167l-12 146h241z" />
    <glyph glyph-name="css3" unicode="&#xf13c;" horiz-adv-x="512" 
d="M480 416l-64 -368l-223 -80l-193 80l20 95h82l-8 -41l116 -44l134 44l19 97h-333l16 82h333l11 53h-334l17 82h407z" />
    <glyph glyph-name="btc" unicode="&#xf15a;" horiz-adv-x="384" 
d="M310 205q47 24 41 82q-3 40 -36 60q-27 17 -78 22v79h-49v-77l-38 -1v78h-49v-79q-14 -1 -67 -1l-30 1v-52h8q29 1 38 -2q14 -4 17 -20v-217q-2 -12 -12 -15q-7 -2 -31 -1h-10l-10 -58h97v0v-68h49v67h38v-67h49v68q66 4 99 24q38 24 44 77q4 44 -16 69q-17 23 -54 31z
M151 313q2 0 9 1q43 1 65 -5q39 -11 39 -44t-40 -43q-23 -6 -65 -5h-8v96zM151 62v106h11q51 2 76 -5q46 -12 46 -48t-47 -48q-26 -6 -77 -5h-9z" />
    <glyph glyph-name="youtube" unicode="&#xf167;" horiz-adv-x="576" 
d="M550 324q-5 18 -18 31t-31 18q-26 7 -122 10l-91 1l-91 -1q-96 -3 -122 -10q-18 -5 -31 -18t-18 -31q-7 -27 -10 -82q-1 -28 -1 -50l1 -50q3 -56 10 -83q5 -17 18 -30t31 -18q26 -7 122 -10l91 -1l91 1q96 3 122 10q18 5 31 18t18 30q7 27 10 83l1 50l-1 50q-3 55 -10 82
zM232 110v163l143 -81z" />
    <glyph glyph-name="xing" unicode="&#xf168;" horiz-adv-x="384" 
d="M163 238q-1 -2 -26 -46l-44 -78q-8 -12 -18 -12h-65q-6 0 -8.5 4.5t-0.5 9.5l69 122q1 0 0 0l-44 76q-3 5 0 9.5t9 4.5h65q11 0 18 -13zM383 402l-144 -253l91 -167q3 -5 0.5 -9.5t-8.5 -4.5h-65q-12 0 -19 12l-92 169l145 255q7 12 17 12h66q6 0 8.5 -4.5t0.5 -9.5z" />
    <glyph glyph-name="xing-square" unicode="&#xf169;" 
d="M400 416h-352q-20 0 -34 -14t-14 -34v-352q0 -20 14 -34t34 -14h352q20 0 34 14t14 34v352q0 20 -14 34t-34 14zM140 128h-46q-4 0 -6 3t0 7l49 87v0l-31 54q-3 4 -1 7t7 3h46q8 0 13 -9l32 -55l-50 -88q-5 -9 -13 -9zM360 342l-103 -181l66 -119q2 -4 0 -7t-6 -3h-47
q-8 0 -13 9l-66 120l104 182q5 9 12 9h47q4 0 6 -3t0 -7z" />
    <glyph glyph-name="dropbox" unicode="&#xf16b;" horiz-adv-x="528" 
d="M264 332l-132 -85l132 -84l-132 -84l-132 85l132 84l-132 84l132 84zM132 52l132 85l132 -85l-132 -84zM264 164l132 84l-132 84l132 84l132 -84l-132 -85l132 -84l-132 -84z" />
    <glyph glyph-name="stack-overflow" unicode="&#xf16c;" horiz-adv-x="384" 
d="M294 148l-181 85l16 36l182 -85zM342 224l-154 128l-25 -30l153 -129zM381 256l-119 160l-32 -24l119 -160zM291 137l-196 41l-8 -39l196 -41zM322 8h-279v120h-40v-160h359v160h-40v-120zM283 88h-200v-40h200v40z" />
    <glyph glyph-name="instagram" unicode="&#xf16d;" 
d="M224 307q-31 0 -57.5 -15.5t-42 -42t-15.5 -57.5t15.5 -57.5t42 -42t57.5 -15.5t57.5 15.5t42 42t15.5 57.5t-15.5 57.5t-42 42t-57.5 15.5zM224 117q-31 0 -53 22t-22 53t22 53t53 22t53 -22t22 -53t-22 -53t-53 -22zM371 312q-1 -11 -8.5 -19t-18.5 -8t-19 8t-8 19
t8 19t19 8t19 -8t8 -19zM447 285q-2 29 -9 50q-9 25 -27.5 43.5t-43.5 27.5q-21 7 -49.5 8.5t-93.5 1.5t-93.5 -1.5t-49.5 -8.5q-25 -9 -43.5 -27.5t-27.5 -43.5q-7 -21 -8.5 -49.5t-1.5 -93.5t1.5 -93.5t8.5 -49.5q9 -25 27.5 -43.5t43.5 -26.5q21 -8 49.5 -9.5t93.5 -1.5
t93.5 1.5t49.5 8.5q25 9 43.5 27.5t27.5 43.5q7 21 8.5 49.5t1.5 93.5t-1 93zM399 60q-12 -30 -43 -43q-16 -6 -54 -8q-21 -1 -62 -1h-32q-40 0 -62 1q-37 2 -54 8q-30 12 -43 43q-6 17 -8 54q-1 22 -1 62v32q0 40 1 62q2 38 8 54q12 31 43 43q17 6 54 8q22 1 62 1h32
q40 0 62 -1q38 -2 54 -8q31 -12 43 -43q6 -16 8 -54q1 -21 1 -62v-32q0 -40 -1 -62q-2 -37 -8 -54z" />
    <glyph glyph-name="flickr" unicode="&#xf16e;" 
d="M400 416h-352q-20 0 -34 -14t-14 -34v-352q0 -20 14 -34t34 -14h352q20 0 34 14t14 34v352q0 20 -14 34t-34 14zM145 129q-27 0 -45.5 18.5t-18.5 45t18.5 45t45 18.5t45 -18.5t18.5 -45t-18.5 -45t-44.5 -18.5zM304 129q-27 0 -45.5 18.5t-18.5 45t18.5 45t45 18.5
t45 -18.5t18.5 -45t-18.5 -45t-44.5 -18.5z" />
    <glyph glyph-name="adn" unicode="&#xf170;" horiz-adv-x="496" 
d="M248 281l65 -99h-130zM496 192q0 -67 -33.5 -124t-90.5 -90.5t-124 -33.5t-124 33.5t-90.5 90.5t-33.5 124t33.5 124t90.5 90.5t124 33.5t124 -33.5t90.5 -90.5t33.5 -124zM396 109l-148 224l-148 -224h30l34 52h168l34 -52h30z" />
    <glyph glyph-name="bitbucket" unicode="&#xf171;" horiz-adv-x="512" 
d="M23 416q-7 0 -11.5 -4.5t-4.5 -11.5l68 -414q1 -8 7 -13t14 -5h325q6 0 10.5 3.5t5.5 9.5l68 416q1 7 -3 12.5t-10 6.5h-469zM308 119h-103l-28 147h157z" />
    <glyph glyph-name="tumblr" unicode="&#xf173;" horiz-adv-x="320" 
d="M310 -32q-12 -13 -36 -22q-29 -10 -62 -10q-55 0 -91 25q-30 20 -44 56q-12 28 -12 60v144h-47q-4 0 -7 2.5t-3 7.5v68q0 5 3 9.5t8 6.5q42 14 65 51q17 29 20 66q1 16 16 16h71q4 0 7 -3t3 -7v-115h83q4 0 7 -3t3 -7v-82q0 -4 -3 -7t-7 -3h-84v-133q0 -27 18 -38t50 2
q9 4 13.5 2.5t6.5 -7.5l22 -65q4 -10 0 -14z" />
    <glyph glyph-name="tumblr-square" unicode="&#xf174;" 
d="M400 416h-352q-20 0 -34 -14t-14 -34v-352q0 -20 14 -34t34 -14h352q20 0 34 14t14 34v352q0 20 -14 34t-34 14zM318 52q-8 -8 -23 -14q-18 -6 -38 -6q-50 0 -74 32q-18 23 -18 56v90h-30q-2 0 -4 2t-2 4v43q0 7 7 10q27 9 40 32q11 18 13 41q1 10 10 10h44q3 0 4.5 -2
t1.5 -4v-72h52q3 0 4.5 -2t1.5 -4v-51q0 -3 -1.5 -5t-4.5 -2h-52v-83q0 -17 11.5 -23.5t31.5 1.5q5 2 8 1t4 -5l14 -40q2 -7 0 -9z" />
    <glyph glyph-name="apple" unicode="&#xf179;" horiz-adv-x="376" 
d="M315 179q-1 55 50 85q-28 40 -85 45q-15 1 -34 -4q-11 -3 -30 -10t-25 -7t-27 8q-33 12 -49 12q-29 -1 -55.5 -16t-42.5 -44q-17 -31 -17 -74q0 -39 14 -81q8 -22 23 -49q19 -33 38 -52q25 -25 47 -24q11 0 32 8q26 10 43 10t41 -9q22 -9 36 -9q32 1 65 46q25 35 37 73
q-40 19 -54 56q-8 18 -7 36v0zM258 344q27 32 24 72v0q-18 -1 -37 -11t-31 -24q-29 -32 -25 -72q37 -3 69 34v1z" />
    <glyph glyph-name="windows" unicode="&#xf17a;" 
d="M0 354l184 26v-178h-184v152zM0 30l184 -26v176h-184v-150zM204 2l244 -34v212h-244v-178zM204 382v-180h244v214z" />
    <glyph glyph-name="android" unicode="&#xf17b;" 
d="M90 244v-116q0 -12 -8 -20t-20 -8t-21 8t-9 20v116q0 11 9 19t20.5 8t20 -8t8.5 -19zM100 87q0 -13 9 -21.5t21 -8.5h20v-61q0 -18 14 -24.5t27.5 0.5t13.5 24v61h38v-61q0 -18 13.5 -24.5t27.5 0t14 24.5v61h20q12 0 21 8.5t9 21.5v179h-248v-179zM348 276h-249
q0 31 17.5 57.5t46.5 41.5l-19 35q-2 4 1.5 5.5t4.5 -1.5l20 -35q26 11 54.5 11t53.5 -11l20 35q1 3 4.5 1.5t1.5 -5.5l-19 -35q29 -15 46 -41.5t17 -57.5zM178 331q0 4 -3 7.5t-7.5 3.5t-7.5 -3.5t-3 -7.5t3 -7t7.5 -3t7.5 3t3 7zM291 331q0 4 -3 7.5t-7 3.5t-7.5 -3.5
t-3.5 -7.5t3.5 -7t7.5 -3t7 3t3 7zM386 271q-11 0 -19.5 -8t-8.5 -20v-115q0 -12 8.5 -20t20 -8t20.5 8t9 20v116q0 11 -9 19t-21 8z" />
    <glyph glyph-name="linux" unicode="&#xf17c;" 
d="M196 324q0 2 3 3v0q4 2 5.5 1t1 -1.5t-2.5 -1.5l-2 -1q-1 -1 -3 -1t-2 1zM221 325l1 -1t3 -1t2 1.5t-3 2.5v0q-4 2 -5.5 1t-1 -1.5l1.5 -1.5h2zM436 15q-1 -11 -14 -19q-5 -2 -15 -8q-27 -12 -36 -24l-3 2l3 -2q-22 -26 -49 -28q-12 -1 -23 5t-17 18v0q-1 3 -2 7
q-12 -1 -32 2q-17 3 -23 2q-12 -1 -30 -4q-13 -3 -19 -3q-7 -16 -26 -20q-25 -6 -56 11l2 3l-2 -3q-12 6 -41 10q-12 1 -18 2q-15 3 -20 13t2 31q2 5 0 19l-1 2q-1 8 -1 12q0 7 3 12q5 10 18 15l3 1q11 3 15 7l6 8q6 9 10 12q-4 24 6 53q15 46 58 97q12 16 17 32q5 14 6 33
q0 5 -1 19q-2 31 0 49q3 30 19 46q20 21 60 21q35 0 54 -22q15 -18 20 -50q2 -19 2 -54v-5q-1 -20 9 -39q7 -11 23 -32l1 -1q33 -40 47 -75q16 -42 3 -79l4 -2l4 -3q7 -5 11 -22v-1q4 -15 7 -19q16 -18 15 -29h1zM221 339q8 -2 13 -5q-2 9 2 16.5t10 7t9 -9.5t0 -18l-3 -3
l-1 -1q9 -3 12 -5q7 7 8 18.5t-3 21.5q-8 16 -22.5 16t-21.5 -16q-5 -11 -3 -22zM175 320q1 1 3.5 3l2.5 2v1q-6 5 -5.5 16t6 11.5t8.5 -6t2 -13.5q4 3 10 5q1 14 -5 23.5t-14.5 9.5t-13.5 -10t-3.5 -22.5t9.5 -19.5zM165 299q3 -8 15 -15q3 -2 9 -7.5t10.5 -7.5t10.5 -2
q8 -1 15 2q4 2 11.5 6.5t11.5 6.5q18 5 22.5 17.5t-10.5 18.5l-12 4q-7 3 -11 5q-14 9 -26.5 9t-25.5 -13l-16 -11q-6 -5 -4 -13zM132 46l-20 36q-10 14 -21 16t-18 -7l-7 -8q-5 -7 -8 -10q-6 -5 -15 -8l-4 -2q-11 -4 -14.5 -10.5t-1.5 -20.5v-3q3 -14 1 -21v0
q-7 -19 -3 -27q3 -5 12 -7q5 -2 20 -4q30 -3 44 -10q26 -14 49 -11q25 4 27 29q1 8 -7 21q-5 7 -17 23q-14 17 -17 24zM286 11v1q6 20 6 28q2 28 5 39q5 22 21 28q3 28 38 12q15 -6 20.5 -12t2.5 -14h5q6 20 -31 35q4 17 -0.5 35t-15.5 35q-9 15 -20 25q-4 0 3 -7
q13 -12 21 -33q11 -28 2 -52q-6 2 -11 2q-5 31 -23 64q-10 17 -20 45q-12 29 -18 51q-7 -10 -22 -15q-3 -1 -10 -5l-6 -4q-11 -6 -22 -6t-20 7l-5 4q-5 5 -8 6l-6 5q-1 -21 -12 -50q-6 -17 -20 -47l-7 -16q-13 -31 -14 -62q-14 19 -10 46q3 18 13 37q12 24 8 21
q-22 -36 -27 -60q-5 -19 0 -35q6 -18 25 -30l14 -9q16 -12 24 -23q11 -15 7.5 -24.5t-16.5 -9.5q10 -12 14 -20q27 -18 60 -14q28 3 55 22zM415 40q-5 5 -8.5 21t-8 20t-9 5t-12.5 0h-2q-6 -7 -17.5 -12.5t-20 -3.5t-13.5 10.5t-6 18.5h-1q-10 -5 -14 -21q-2 -11 -4 -39
q0 -8 -6 -28l-4 -13q-6 -23 -1 -36q11 -21 34.5 -19t43.5 25q7 9 18 16q7 5 20 11t17 9q7 5 8 11q0 9 -14 24v1zM173 299h1l7 -7q14 -10 28 -10q11 0 31 10v0q8 4 15 10.5t3 6.5q-1 1 -2.5 -1.5t-3.5 -3.5l-3 -2q-7 -6 -11 -7q-18 -11 -30 -11t-24 10l-8 7l-1 2q-2 3 -3.5 3
t-1 -2.5t2.5 -4.5z" />
    <glyph glyph-name="dribbble" unicode="&#xf17d;" horiz-adv-x="512" 
d="M256 440q-67 0 -124 -33.5t-90.5 -90.5t-33.5 -124t33.5 -124t90.5 -90.5t124 -33.5t124 33.5t90.5 90.5t33.5 124t-33.5 124t-90.5 90.5t-124 33.5zM420 326q23 -28 35 -61.5t13 -70.5q-22 4 -50 7q-53 5 -98 -1q-9 22 -18 42q49 20 87 52q20 17 31 32zM396 350
q-9 -14 -28 -30q-35 -29 -83 -46q-36 67 -79 124q51 12 101 -0.5t89 -47.5zM166 383q42 -57 78 -122q-62 -17 -131 -23q-37 -3 -64 -3q10 49 41 88t76 60zM44 192v6q31 0 73 3q78 7 145 27q10 -18 17 -36q-55 -15 -106 -57q-47 -38 -74 -85q-26 29 -40.5 65.5t-14.5 76.5z
M126 25q18 37 60 72q47 40 108 60q32 -83 45 -160q-52 -22 -109.5 -15.5t-103.5 43.5zM374 16q-12 71 -41 151q42 7 88 0q26 -3 44 -9q-7 -44 -31 -81t-60 -61z" />
    <glyph glyph-name="skype" unicode="&#xf17e;" 
d="M425 148q4 23 4 44q0 56 -27.5 103t-74.5 74.5t-103 27.5q-22 0 -44 -4q-30 23 -68 23q-30 0 -56 -15t-41 -41t-15 -56q0 -38 23 -68q-4 -23 -4 -44q0 -56 27.5 -103t74.5 -74.5t103 -27.5q22 0 44 4q30 -23 68 -23q30 0 56 15t41 41t15 56q0 38 -23 68zM230 57
q-32 0 -60 8.5t-44 23.5t-16 33q0 13 7.5 21.5t21.5 8.5q9 0 17 -5q5 -3 14 -13q13 -13 22 -18q15 -9 34.5 -9t31.5 7.5t12 19.5t-11 18q-6 4 -28 9l-20 5q-36 8 -51 14q-25 9 -36 24q-14 17 -14 45q0 41 35 63q30 18 73.5 18t76.5 -15q35 -16 35 -40q0 -14 -8.5 -23
t-22.5 -9q-8 0 -15 4q-5 2 -12 10q-11 9 -18 13q-13 6 -30 6q-42 0 -42 -22q0 -12 13 -18q9 -4 40 -12l16 -3q40 -9 61 -23q30 -21 30 -55q0 -41 -35 -65q-32 -21 -77 -21z" />
    <glyph glyph-name="foursquare" unicode="&#xf180;" horiz-adv-x="368" 
d="M323 445h-273q-25 0 -39 -16q-11 -13 -11 -30v-434q0 -23 18 -30q7 -3 15 -2q11 1 18 9l131 152q3 3 6 3h84q23 0 34 14q6 8 10 25l49 244q7 33 -3 49t-39 16zM307 371l-12 -59q-1 -5 -6 -9.5t-10 -4.5h-107q-9 0 -14.5 -5.5t-5.5 -14.5v-13q-1 -9 5 -15t15 -6h91
q6 0 11 -5.5t3 -12.5q-7 -36 -11 -59q-1 -4 -5.5 -8.5t-11.5 -4.5h-73q-11 0 -15.5 -2.5t-11.5 -10.5l-89 -108q-1 -1 -1.5 -0.5l-0.5 0.5v339q0 6 4.5 11.5t11.5 5.5h219q7 0 11 -5.5t3 -12.5z" />
    <glyph glyph-name="trello" unicode="&#xf181;" 
d="M392 416h-336q-23 0 -39.5 -16.5t-16.5 -39.5v-336q0 -23 16.5 -39.5t39.5 -16.5h336q23 0 39.5 16.5t16.5 39.5v336q0 23 -16.5 39.5t-39.5 16.5zM195 77q0 -12 -8 -19.5t-19 -7.5h-83q-11 0 -19 7.5t-8 19.5v254q0 11 8 19t19 8h83q11 0 19 -8t8 -19v-254zM390 189
q0 -12 -8 -19.5t-19 -7.5h-83q-11 0 -19 7.5t-8 19.5v142q0 11 8 19t19 8h83q11 0 19 -8t8 -19v-142z" />
    <glyph glyph-name="gratipay" unicode="&#xf184;" horiz-adv-x="496" 
d="M248 440q-67 0 -124 -33.5t-90.5 -90.5t-33.5 -124t33.5 -124t90.5 -90.5t124 -33.5t124 33.5t90.5 90.5t33.5 124t-33.5 124t-90.5 90.5t-124 33.5zM363 214l-113 -153l-113 153q-5 7 -8 19q-3 14 2 27q5 16 20 26q19 12 39 6q17 -4 29 -18t31 -13.5t31 14t29 17.5
q20 6 39 -6q15 -10 20 -26q4 -13 1 -27q-2 -12 -7 -19z" />
    <glyph glyph-name="vk" unicode="&#xf189;" horiz-adv-x="576" 
d="M545 330q6 22 -18 22h-59q-18 0 -25 -17l-10 -20q-12 -26 -25 -48q-19 -31 -38 -52q-10 -11 -16 -14.5t-10.5 -3.5t-7.5 4t-3 13v116q0 12 -3.5 17t-12.5 5h-93q-6 0 -10.5 -4t-4.5 -9.5t7 -14t10 -15.5q6 -12 7 -28v-87q0 -13 -2.5 -17.5t-8.5 -4.5q-10 0 -28 22t-36 57
q-20 38 -34 78q-4 13 -9.5 18t-16.5 5h-59q-20 0 -20 -17q0 -10 7 -35q11 -31 29 -67q23 -47 57 -93q36 -52 84 -80t95 -28q27 0 36 6q7 5 6 17v26q0 24 1 31q0 10 3.5 13t11.5 3q19 0 59 -38q12 -12 27.5 -29.5t21.5 -21.5q9 -7 20 -7h59q12 0 17.5 6.5t2.5 18.5
q-9 28 -81 102l-9 10q-6 7 -6 12t6 14q1 1 19 27q21 33 36 58q21 35 24 50z" />
    <glyph glyph-name="weibo" unicode="&#xf18a;" horiz-adv-x="512" 
d="M407 270q6 18 -6.5 32t-30.5 10q-11 -2 -16.5 5t-3.5 16.5t12 11.5q25 5 45.5 -6.5t30 -33.5t1.5 -45q-3 -10 -12.5 -11.5t-16 5t-3.5 16.5zM215 1q-54 0 -103.5 17t-79.5 47q-32 32 -32 73q0 33 20 70t56 73t74 57q34 19 61.5 19.5t38.5 -17.5t0 -53q-4 -11 11 -6h1
q40 17 71 17t43.5 -17.5t-0.5 -50.5q-2 -7 0 -9t9 -4q48 -16 59 -52q10 -34 -17 -72.5t-80 -63.5q-60 -28 -132 -28zM359 148q-3 27 -26 48t-59.5 31t-78.5 6t-75.5 -21t-52 -42t-16 -52.5t25.5 -48.5t59.5 -31t78.5 -6t76 21t52 42t16 53zM348 413q-12 -3 -15 -13.5t4 -19
t19 -5.5q35 7 65.5 -9.5t44 -48.5t2.5 -66q-4 -12 4 -19.5t18.5 -6t14.5 13.5q16 48 -4 94q-18 44 -60 66q-43 24 -93 14zM269 102q-12 -29 -44.5 -43t-63.5 -4t-42.5 36.5t1.5 53.5t43 40t61 5t44.5 -33.5t0.5 -54.5zM183 132q-10 4 -21 0t-17 -13.5t-3.5 -19t12.5 -14.5
t21.5 -1t17.5 14t3 20t-13 14zM216 145q-4 2 -8 0t-6.5 -5.5t-1.5 -7t5 -5.5t8.5 0t6.5 5.5t1 7.5t-5 5z" />
    <glyph glyph-name="renren" unicode="&#xf18b;" horiz-adv-x="512" 
d="M214 279q0 -82 -41 -148.5t-107 -99.5q-27 34 -42.5 74.5t-15.5 85.5q0 61 27 113t74 87t105 45v-157zM255 -56q-63 0 -118 30q44 28 75 67q32 42 43 88q11 -46 44 -88q30 -39 75 -67q-55 -30 -119 -30zM446 32q-66 32 -107 98.5t-41 148.5v157q58 -10 105 -45t74 -87
t27 -113q0 -45 -15.5 -85.5t-42.5 -74.5v1z" />
    <glyph glyph-name="pagelines" unicode="&#xf18c;" horiz-adv-x="384" 
d="M384 135q-15 -38 -41 -58q-21 -17 -49 -20q-22 -2 -47 4q-18 4 -36 13l-14 7q-31 -62 -79.5 -98t-105.5 -36q-7 0 -10.5 6t-0.5 12t11 6q48 0 88.5 29.5t69.5 80.5q-44 -17 -81 -6q-53 16 -81 88q72 30 123 7q34 -15 55 -52q15 36 22 80l-15 -2q-18 -1 -35 1
q-24 4 -43 12q-23 11 -37 30q-17 23 -20 57q53 21 93 1q28 -14 47 -48q9 -16 13 -30v0l3 53l-10 9q-13 11 -23 23q-14 18 -21 36q-9 23 -6 45q3 27 22 52q55 -19 71 -61q12 -30 2 -68q-4 -20 -11 -33v0v-14v-19l8 13q11 16 26 27q19 16 42 22q29 6 60 -5q-2 -59 -39 -87
q-26 -20 -67 -21q-21 -1 -36 2v0q-7 -41 -20 -78l9 9q12 11 26 19q19 11 38 16q24 6 47 2q27 -6 52 -26z" />
    <glyph glyph-name="stack-exchange" unicode="&#xf18d;" 
d="M18 116h412v-22q0 -29 -19 -48.5t-46 -19.5h-19l-87 -90v90h-176q-27 0 -46 19.5t-19 48.5v22zM18 139h412v85h-412v-85zM18 249h412v85h-412v-85zM365 448h-282q-27 0 -46 -20t-19 -48v-22h412v22q0 28 -19 48t-46 20z" />
    <glyph glyph-name="vimeo-square" unicode="&#xf194;" 
d="M400 416h-352q-20 0 -34 -14t-14 -34v-352q0 -20 14 -34t34 -14h352q20 0 34 14t14 34v352q0 20 -14 34t-34 14zM384 266q-2 -46 -65 -128q-66 -84 -111 -84q-28 0 -47 51l-11 39q-16 61 -23 80q-11 28 -23 28q-4 0 -25 -15l-15 19l21 18q28 26 41 36q20 15 32 16
q37 4 46 -51q11 -69 18 -94q9 -29 19.5 -27.5t30 32.5t20.5 47q3 22 -14 27q-13 3 -31 -5q24 78 90 75q50 -1 47 -64z" />
    <glyph glyph-name="slack" unicode="&#xf198;" 
d="M244 231l20 -58l-60 -20l-20 58zM286 -13q-79 -24 -129 -18t-82.5 44.5t-56 117t-17.5 128.5t44.5 82.5t117 56t128.5 17.5t82.5 -44.5t56 -117t17.5 -128.5t-44.5 -82.5t-116.5 -55.5zM366 183q-3 9 -11.5 13.5t-17.5 1.5l-29 -10l-19 58l29 9q9 3 13 12t1 18t-11.5 13
t-17.5 2l-29 -10l-10 30q-3 9 -11.5 13.5t-18 1.5t-13.5 -12t-1 -18l10 -30l-60 -20l-10 30q-3 9 -11.5 13.5t-18 1.5t-13.5 -11.5t-1 -18.5l10 -30l-29 -9q-9 -3 -13.5 -12t-1.5 -18q2 -7 8 -11t14 -5q3 0 23 7l14 4l19 -58l-29 -9q-9 -3 -13.5 -11.5t-1.5 -18.5
q2 -7 8 -11t14 -5q3 0 23 7l14 4l10 -30q2 -8 10.5 -12.5t18 -2t14 11.5t1.5 18l-10 30l59 20l10 -30q3 -9 11.5 -13.5t18 -1.5t13.5 11.5t1 18.5l-9 30l29 9q9 4 13 12.5t1 17.5z" />
    <glyph glyph-name="wordpress" unicode="&#xf19a;" horiz-adv-x="512" 
d="M62 279l101 -278q-54 26 -87 77.5t-33 113.5q0 45 19 87zM400 203q0 17 -6 34q-4 10 -12 24l-2 4q-10 16 -13 23q-6 12 -6 23q0 15 10.5 26.5t25.5 11.5h3q-29 26 -66 41t-78 15q-55 0 -102 -26t-76 -70h14q14 0 37 1l20 1q5 1 7.5 -3.5t0.5 -9t-7 -4.5l-24 -2l77 -231
l47 140l-33 91q-12 0 -23 2v0q-5 0 -7 4.5t0.5 9t8.5 3.5l20 -1q23 -1 36.5 -1t35.5 1l20 1q6 1 8.5 -3.5t0.5 -9t-7 -4.5l-24 -2l76 -229l24 78q7 24 10 34q4 16 4 28zM260 173l-64 -185q30 -9 60 -9q36 0 71 12l-2 3zM443 294q1 -10 1 -22q0 -36 -16 -76l-65 -188
q48 28 77 77t29 107q0 55 -26 102zM504 192q0 -67 -33.5 -124t-90.5 -90.5t-124 -33.5t-124 33.5t-90.5 90.5t-33.5 124t33.5 124t90.5 90.5t124 33.5t124 -33.5t90.5 -90.5t33.5 -124zM493 192q0 64 -32 118.5t-86.5 86.5t-118.5 32t-118.5 -32t-86.5 -86.5t-32 -118.5
t32 -118.5t86.5 -86.5t118.5 -32t118.5 32t86.5 86.5t32 118.5z" />
    <glyph glyph-name="openid" unicode="&#xf19b;" 
d="M272 16l-68 -32q-57 5 -103.5 25.5t-73.5 52t-27 67.5t25 66.5t69 51.5t98 27v-43q-55 -9 -89.5 -37t-34.5 -65t38.5 -66t96.5 -36v340l68 33v-384h1zM448 157l-131 29l37 20q-30 18 -70 25v43q69 -8 120 -39l35 20z" />
    <glyph glyph-name="yahoo" unicode="&#xf19e;" 
d="M252 156l4 -220q-23 4 -32 4t-33 -4l4 220l-39 68q-42 75 -65 113q-37 63 -70 111q15 -4 32.5 -4t35.5 4q34 -61 111 -186l24 -39l34 54q69 112 101 171q15 -4 33.5 -4t34.5 4q-38 -52 -175 -292z" />
    <glyph glyph-name="google" unicode="&#xf1a0;" horiz-adv-x="488" 
d="M488 186q0 -70 -30 -125t-84.5 -86t-125.5 -31q-67 0 -124 33.5t-90.5 90.5t-33.5 124t33.5 124t90.5 90.5t124 33.5q97 0 166 -65l-67 -65q-32 31 -77 37q-42 6 -83 -12t-66 -54q-27 -39 -27 -89q0 -43 21 -78.5t56 -57t77 -21.5q45 0 79 20q27 16 45 43q13 22 17 44
h-141v86h236q4 -22 4 -42z" />
    <glyph glyph-name="reddit" unicode="&#xf1a1;" horiz-adv-x="512" 
d="M202 143q-11 0 -18 7t-7 17t7 17.5t17.5 7.5t17.5 -7.5t7 -17.5t-7 -17t-17 -7zM504 192q0 -67 -33.5 -124t-90.5 -90.5t-124 -33.5t-124 33.5t-90.5 90.5t-33.5 124t33.5 124t90.5 90.5t124 33.5t124 -33.5t90.5 -90.5t33.5 -124zM372 233q-14 0 -24 -10q-36 25 -86 27
l17 78l56 -12q0 -11 7 -18t17.5 -7t17.5 7.5t7 17.5t-7 17.5t-18 7.5q-7 0 -13 -4t-9 -10l-61 14q-2 0 -4 -1.5t-3 -3.5l-19 -86q-50 -2 -86 -27q-9 10 -24 10q-16 0 -25.5 -12.5t-6.5 -27.5t18 -23q-2 -7 -2 -15q0 -26 18 -48t48 -34.5t66 -12.5t66.5 12.5t48.5 34.5t18 48
l-2 16q15 7 17.5 22.5t-7 27.5t-25.5 12zM303 117q-9 -9 -28 -12t-38 0t-28 12q-1 2 -3.5 2t-4.5 -2t-2 -4.5t2 -4.5q11 -11 33 -15t44 0t33 15q2 2 2 4.5t-2 4.5t-4.5 2t-3.5 -2zM311 192q-11 0 -18 -7.5t-7 -17.5t7 -17t17.5 -7t17.5 7t7 17t-7 17.5t-17 7.5z" />
    <glyph glyph-name="reddit-square" unicode="&#xf1a2;" 
d="M283 103q2 -3 2 -5.5t-2 -4.5q-12 -12 -35.5 -16t-47 0t-35.5 16q-2 2 -2 4.5t2 4.5t4.5 2t4.5 -2q9 -9 29.5 -12.5t41 0t29.5 13.5q2 1 4.5 1t4.5 -1zM192 156q0 11 -8 19t-19 8t-18.5 -8t-7.5 -19t7.5 -18.5t18.5 -7.5t19 7.5t8 18.5zM283 183q-11 0 -19 -8t-8 -19
t8 -18.5t19 -7.5t18.5 7.5t7.5 18.5t-7.5 19t-18.5 8zM448 368v-352q0 -20 -14 -34t-34 -14h-352q-20 0 -34 14t-14 34v352q0 20 14 34t34 14h352q20 0 34 -14t14 -34zM348 227q-14 0 -25 -10q-39 27 -93 28l19 85l59 -14q0 -11 8 -18.5t19 -7.5t19 7.5t8 18.5t-8 19t-19 8
q-8 0 -14 -4t-10 -11l-66 15q-2 1 -4 -0.5t-3 -4.5l-20 -93q-54 -2 -92 -29q-11 11 -26 11q-18 0 -28 -13t-7 -29.5t19 -24.5q-2 -8 -2 -17q0 -28 19.5 -51.5t52 -37t71 -13.5t71 13.5t51.5 37t19 51.5q1 10 -2 17q16 8 19 24.5t-7 29.5t-28 13z" />
    <glyph glyph-name="stumbleupon-circle" unicode="&#xf1a3;" horiz-adv-x="496" 
d="M256 440q-67 0 -124 -33.5t-90.5 -90.5t-33.5 -124t33.5 -124t90.5 -90.5t124 -33.5t124 33.5t90.5 90.5t33.5 124t-33.5 124t-90.5 90.5t-124 33.5zM256 263q-7 0 -12.5 -5.5t-5.5 -12.5v-107q0 -31 -22 -52.5t-53 -21.5t-53 22t-22 53v46h58v-45q0 -8 5 -13t12.5 -5
t12.5 5t5 13v108q0 30 22 51t53 21t53 -21.5t22 -51.5v-23l-34 -10l-23 10v21q0 7 -5.5 12t-12.5 5v1zM424 139q0 -31 -22 -53t-53 -22t-53 21.5t-22 52.5v47l23 -11l34 10v-47q0 -7 5 -12t12.5 -5t12.5 5t5 12v48h58v-46z" />
    <glyph glyph-name="stumbleupon" unicode="&#xf1a4;" horiz-adv-x="512" 
d="M503 182v-70q0 -30 -15 -56t-41 -41t-56.5 -15t-56.5 15t-41 40.5t-15 55.5v70l34 -16l52 16v-71q0 -11 7.5 -18.5t18.5 -7.5t19 7.5t8 18.5v72h86zM278 240l35 -16l51 15v36q0 30 -15.5 55t-41 39.5t-55.5 14.5t-56 -14.5t-41.5 -39.5t-15.5 -54v-163q0 -11 -7.5 -18.5
t-18.5 -7.5t-19 7.5t-8 18.5v69h-86v-70q0 -30 15 -56t41 -41t56.5 -15t56 15t41 40.5t15.5 55.5v160q0 11 7.5 19t19 8t19 -8t7.5 -19v-31z" />
    <glyph glyph-name="delicious" unicode="&#xf1a5;" 
d="M447 380q-1 2 -2 5t-3 7t-5 7t-7 6l-3 3l-10 5l-5 1q-6 2 -12 2h-352q-20 0 -34 -14t-14 -34v-352q0 -6 2 -12q2 -12 11 -20l3 -4q9 -8 20 -11q6 -1 12 -1h352q20 0 34 14t14 34v352q0 7 -1 12zM416 16q0 -7 -4.5 -11.5t-11.5 -4.5h-176v192h-192v176q0 7 4.5 11.5
t11.5 4.5h176v-192h192v-176z" />
    <glyph glyph-name="digg" unicode="&#xf1a6;" horiz-adv-x="512" 
d="M82 276h-82v-175h133v251h-51v-76zM82 142h-31v93h31v-93zM379 276v-175h82v-28h-82v-41h133v244h-133zM461 142h-31v93h31v-93zM225 101h82v-28h-82v-41h133v244h-133v-175zM276 235h31v-93h-31v93zM153 352h52v-51h-52v51zM153 276h52v-175h-52v175z" />
    <glyph glyph-name="pied-piper-pp" unicode="&#xf1a7;" 
d="M205 273q0 -15 -9 -26.5t-22 -11.5q-11 0 -18 4v68q7 4 18 4q13 0 22 -11t9 -27zM258 206q-10 0 -17 -4v-68q6 -3 17 -3q13 0 22.5 11t9.5 26.5t-9.5 26.5t-22.5 11zM448 368v-352q0 -20 -14 -34t-34 -14h-352q-20 0 -34 14t-14 34v352q0 20 14 34t34 14h352q20 0 34 -14
t14 -34zM185 193q31 0 52.5 23.5t21.5 56t-21.5 56t-52.5 23.5q-18 0 -35 -9h-45v-206l52 10v51q13 -5 28 -5zM343 168q0 33 -21.5 56t-51.5 23h-10q-6 -20 -19 -34q-22 -23 -52 -25v-156l52 10v51q12 -5 28 -5q31 0 52.5 23.5t21.5 56.5z" />
    <glyph glyph-name="pied-piper-alt" unicode="&#xf1a8;" horiz-adv-x="576" 
d="M242 261q5 9 10.5 13.5t15.5 8.5q15 5 27 16q8 7 21 23l11 12q4 -3 9 -10.5t8 -9.5q6 -4 14 -3v-22h7q34 13 55 23q30 15 51 31q31 24 45 42q11 12 29 45l8 13l2 3q-1 -16 -13 -40q-22 -47 -58.5 -75.5t-88.5 -41.5l-12 -2q-18 -3 -25 -6q1 -6 8 -15q5 -6 5 -9t-7 -8
l-4 5q-13 15 -18.5 17t-21.5 3q-20 0 -39 -2q-23 -4 -39 -11zM380 4q-15 0 -42 -6t-38 -14l7 -45q55 -9 106 10l-3 6q-22 49 -30 49zM244 202q-5 3 -9.5 3t-10.5 -2t-9 -2l1 -5zM231 170l25 -61l21 14l-32 51zM556 448l-1 -1v-1v1zM496 66q-33 55 -59 80q-41 37 -91 35v6
q0 4 2.5 5t8.5 2q10 2 15 5q8 6 9 19l-14 -7q-4 9 -9.5 23.5t-8.5 19.5q-5 7 -15 9.5t-33 2.5q-18 0 -41 -5q5 -34 -11 -50l19 -6q-2 -5 -2 -10.5t5 -8.5q3 -2 13 -3q12 -2 16 -5q8 -5 8 -16q0 -9 -10 -23.5t-23 -25.5t-22 -11q-6 0 -29.5 26t-23.5 34v4l53 12q6 1 8 6.5
t-1 11t-10 5.5q-3 0 -43 -10l-7 -1q-2 5 -5.5 9.5t-7.5 4.5q-2 0 -6 -2l-4 -2l-6 -1q-11 -2 -14 -5q-7 -5 -1 -14l-140 -30q-4 -1 -6.5 -4.5t-2.5 -8t3.5 -7.5t8.5 -3t70 14l77 18l2 -2q3 -5 6 -7q8 -6 33 -40q17 -23 24 -31q13 -14 19 -15q17 1 39 14t32 28q6 8 13 7
q0 -5 -6 -13q-4 -4 -13 -14q-14 -12 -14 -16q-1 -7 -1 -21.5t1 -20.5q10 -3 24 -2q8 0 24 3q19 3 29 2l3 14q8 33 7 50v9q-1 22 -8 33q-4 7 -20 21l-7 5l-4 4l5 2q24 0 39 -18q13 -16 21 -46q6 -18 13 -58q7 -45 13 -64q10 -31 26 -44q10 5 33 14q49 20 70 33l-4 3
q-26 23 -37 35q-19 20 -32 42zM300 20v-27l12 3l-3 24h-9zM376 17v3l-1 2q-17 0 -39 -4l-20 -3l2 -12l7 1q51 7 51 13z" />
    <glyph glyph-name="drupal" unicode="&#xf1a9;" 
d="M320 333q-11 7 -32.5 17t-32.5 17q-15 10 -47 48q-2 -20 -8 -33q-5 -9 -14 -16q-16 -14 -41 -27l-12 -6q-15 -7 -33 -25q-28 -26 -45 -58q-23 -43 -23 -93q0 -53 28 -97q26 -42 70.5 -67t95.5 -25t94.5 23.5t68.5 64.5q27 44 27 98q0 50 -22 95q-16 32 -43 59
q-17 16 -31 25zM322 8q-10 -10 -33 -15.5t-46 -3.5q-25 3 -38 14q-3 4 -0.5 8.5t7.5 4.5l5 -4q8 -4 18 -6q13 -4 28 -4q19 0 34 5q13 4 21 9q4 3 5.5 -1t-1.5 -7zM268 60q6 3 18.5 3t17.5 -3.5t9 -12t-3 -12.5q-2 -1 -3 0t-2 4q-3 5 -6 8q-5 4 -14.5 4t-15.5 -3
q-4 -1 -10 -6l-2 -2q-5 -5 -7.5 -6t-4.5 1q-4 6 7 15q8 7 16 10zM360 43q-5 0 -13 7q-5 4 -15 15q-13 13 -20 19q-10 8 -17 8.5t-19 -5.5q-8 -4 -25 -14q-37 -23 -58 -29q-34 -10 -59 7q-19 13 -18.5 38.5t18.5 44.5q20 22 51 22q20 0 40 -10q12 -6 33 -21q13 -9 19 -13
q10 -5 17 -5t19 7q7 4 22.5 14.5t22.5 14.5q11 6 18 6q17 0 23 -16t2 -38t-15.5 -37.5t-25.5 -14.5z" />
    <glyph glyph-name="joomla" unicode="&#xf1aa;" 
d="M1 356q0 25 17.5 42.5t41.5 17.5q23 0 39.5 -14.5t20.5 -35.5q25 6 50 -1.5t46 -28.5l-44 -44q-15 14 -30 14t-25.5 -11t-10.5 -26t10 -26l100 -100l-44 -44l-100 100q-20 19 -26 46t1 53q-20 4 -33 20.5t-13 37.5zM130 240l44 -45l100 100q11 11 26 11t26 -11t11 -26
t-15 -29l45 -45q22 23 29 49t-1 52q22 4 37 20.5t15 39.5q0 25 -17.5 42.5t-41 17.5t-40.5 -15t-20 -36q-26 7 -52.5 0.5t-45.5 -26.5l-85 -85zM396 87q7 25 0 50t-26 44l-99 100l-45 -44l100 -100q11 -11 11 -26t-11 -26t-26 -11t-29 15l-44 -45q20 -22 48 -29t54 1
q4 -21 21 -34.5t38 -13.5q25 0 42.5 17.5t17.5 42.5q0 23 -15 39.5t-37 19.5zM312 140l-44 45l-100 -100q-10 -11 -25.5 -11t-26 11t-10.5 26t14 29l-44 45q-22 -22 -29 -47.5t-1 -51.5q-20 -4 -33 -20.5t-13 -37.5q0 -25 17.5 -42.5t42.5 -17.5q21 0 37.5 13t20.5 34
q25 -7 50.5 0t44.5 26z" />
    <glyph glyph-name="behance" unicode="&#xf1b4;" horiz-adv-x="576" 
d="M232 211q48 23 48 73t-33 71q-28 18 -80 18h-167v-355h172q53 0 86 25q39 27 39 78q0 34 -16.5 57.5t-48.5 32.5zM78 312h73q53 0 53 -40q0 -22 -12.5 -32.5t-34.5 -10.5h-79v83zM161 78h-83v98h85q56 0 56 -51q0 -47 -58 -47zM520 319h-144v35h144v-35zM576 143
q0 59 -32 98q-35 41 -93 41q-38 0 -68 -18t-46.5 -49t-16.5 -69q0 -60 35.5 -97t95.5 -37q92 0 120 86h-62q-5 -16 -21.5 -25t-34.5 -9q-30 0 -46.5 17t-16.5 49h185zM390 174q2 25 18 40t41.5 15t39.5 -14.5t16 -40.5h-115z" />
    <glyph glyph-name="behance-square" unicode="&#xf1b5;" 
d="M187 155q0 -25 -32 -25h-45v53h46q30 -1 30 -28h1zM179 237q0 22 -29 22h-40v-45h43q26 0 26 23zM311 214q-14 0 -22.5 -8t-9.5 -22h63q-3 30 -31 30zM448 368v-352q0 -20 -14 -34t-34 -14h-352q-20 0 -34 14t-14 34v352q0 20 14 34t34 14h352q20 0 34 -14t14 -34z
M272 263h78v19h-78v-19zM229 153q0 19 -9 32.5t-26 18.5q13 7 19.5 15t6.5 22q0 48 -61 48h-91v-192h93q29 0 47 13q21 15 21 43zM380 168q0 32 -18 53.5t-49.5 21.5t-51.5 -21t-20 -53t19.5 -52.5t51.5 -20.5q50 0 65 47h-33q-3 -8 -12 -13t-18 -5q-17 0 -25.5 9t-8.5 26
h100v7v1z" />
    <glyph glyph-name="steam" unicode="&#xf1b6;" horiz-adv-x="496" 
d="M496 192q0 -67 -33.5 -124t-90.5 -90.5t-124 -33.5q-56 0 -105.5 23t-84.5 64.5t-49 92.5l95 -39q5 -24 24 -40t45 -16q29 0 50 21.5t20 51.5l84 60q40 -1 68 27t28 67t-27.5 66t-66 27t-66 -27t-27.5 -66v-1l-59 -86q-24 1 -44 -12l-133 55q5 63 39.5 115t89 82.5
t119.5 30.5q67 0 124 -33.5t90.5 -90.5t33.5 -124zM156 64l-31 12q9 -18 28.5 -26t39.5 0.5t28.5 28.5t0 40t-28 28.5t-39.5 0.5l32 -13q14 -6 20.5 -20.5t0 -29.5t-21 -21t-29.5 0zM330 194q-26 0 -44.5 18t-18.5 44t18.5 44t44 18t44 -18t18.5 -44t-18.5 -44t-43.5 -18z
M330 209q19 0 33 14t14 33t-14 33t-33.5 14t-33 -14t-13.5 -33t13.5 -33t33.5 -14z" />
    <glyph glyph-name="steam-square" unicode="&#xf1b7;" 
d="M185 92q6 13 0.5 27t-19.5 20l-30 12q18 7 36.5 -0.5t26.5 -26.5t0 -38t-27 -26.5t-37 0t-26 24.5l29 -12q14 -6 27.5 0t19.5 19v1zM400 416h-352q-20 0 -34 -14t-14 -34v-161l117 -48q18 13 40 11l56 81v1q0 36 25.5 61.5t62 25.5t62 -25.5t25.5 -62t-26.5 -62.5
t-63.5 -25l-79 -56q1 -29 -18.5 -49t-46.5 -20q-24 0 -42 15t-23 38l-89 37v-113q0 -20 14 -34t34 -14h352q20 0 34 14t14 34v352q0 20 -14 34t-34 14zM300 194q-24 0 -41 17t-17 41t17 41t41 17t41.5 -17t17.5 -41t-17.5 -41t-41.5 -17zM300 208q19 0 31.5 13t12.5 31
t-12.5 31t-31 13t-31 -13t-12.5 -31t12.5 -31t30.5 -13z" />
    <glyph glyph-name="spotify" unicode="&#xf1bc;" horiz-adv-x="496" 
d="M248 440q-67 0 -124 -33.5t-90.5 -90.5t-33.5 -124t33.5 -124t90.5 -90.5t124 -33.5t124 33.5t90.5 90.5t33.5 124t-33.5 124t-90.5 90.5t-124 33.5zM349 75q-5 0 -11 4q-83 50 -207 24l-2 -1q-7 -1 -10 -1q-7 0 -11 4.5t-4 10.5q0 14 13 17q141 31 237 -26
q5 -3 7.5 -6.5t2.5 -10t-4.5 -11t-10.5 -4.5zM376 141q-5 0 -11 3l-2 1q-48 28 -111 37q-67 9 -127 -8l-4 -1q-5 -1 -8 -1q-8 0 -14 5.5t-6 13.5q0 16 16 21q48 13 97 13t95 -11.5t83 -33.5q11 -7 11 -20q0 -8 -5.5 -13.5t-13.5 -5.5zM407 217q-7 0 -13 4q-53 31 -137 39
q-81 8 -144 -9l-2 -1q-7 -2 -11 -2q-10 0 -16.5 7t-6.5 16.5t5 15.5t12 8q52 16 118 16q56 0 109 -12q55 -13 96 -36q13 -8 13 -23q0 -10 -7 -16.5t-16 -6.5z" />
    <glyph glyph-name="deviantart" unicode="&#xf1bd;" horiz-adv-x="320" 
d="M320 355l-98 -179l7 -10h91v-127h-161l-13 -10l-44 -84l-9 -9h-93v93l93 180l-7 9h-86v128h156l14 9l43 84l9 9h98v-93z" />
    <glyph glyph-name="soundcloud" unicode="&#xf1be;" horiz-adv-x="640" 
d="M111 192l6 -65l-6 -69q0 -4 -4 -4t-4 4l-6 69l6 65q0 4 4 4t4 -4zM133 237q-5 0 -5 -5l-5 -105l5 -69q0 -5 5 -5q2 0 3.5 1.5t1.5 3.5l5 69l-5 105q0 2 -1.5 3.5t-3.5 1.5zM158 261q-5 0 -5 -5l-5 -130l5 -68q0 -5 5 -5q2 0 4 1.5t2 3.5l5 68l-5 130q0 2 -2 3.5t-4 1.5z
M7 165q-2 0 -2 -3l-5 -35l5 -35q0 -3 2 -3t3 3l5 35l-5 35q-1 3 -3 3zM31 187q-3 0 -3 -3l-6 -57l6 -56q0 -3 2.5 -3t3.5 2l7 57l-7 57q-1 3 -3 3zM56 198q-3 0 -3 -3l-6 -68l6 -66q0 -3 3 -3t3 3l7 66l-7 68q0 3 -3 3zM81 200q-3 0 -3 -3l-6 -70l6 -68q0 -4 3.5 -4t3.5 4
l7 68l-7 70q0 3 -4 3zM323 311q-2 2 -5 2t-5.5 -2.5t-2.5 -6.5l-4 -177l4 -65q0 -3 2.5 -5.5t6 -2.5t6 2.5t2.5 5.5l4 65l-4 177q0 5 -4 7zM296 296q-2 1 -4 1t-5 -1.5t-3 -6.5l-3 -162l3 -66q0 -3 2 -5.5t5.5 -2.5t6 2.5t2.5 5.5l3 65l-3 163q0 5 -4 7zM185 273
q-3 0 -4.5 -1.5t-1.5 -4.5l-4 -140l4 -67q0 -6 5.5 -6t6.5 6l5 67l-5 140q0 3 -2 4.5t-4 1.5zM561 211q-15 0 -30 -6q-3 34 -22.5 63t-50 46t-65.5 17q-27 0 -51 -9q-4 -2 -6 -4t-2 -6v-249q0 -4 2.5 -6.5t6.5 -3.5h218q33 0 56 23t23 55.5t-23 56t-56 23.5zM265 271
q-3 0 -5.5 -2.5t-2.5 -5.5l-3 -137l3 -65q0 -3 2.5 -5.5t5.5 -2.5t5 2.5t2 5.5l4 65l-4 137q0 8 -7 8zM211 279q-2 0 -4 -2t-2 -5l-4 -145l4 -67q0 -3 2 -5t4 -2q6 0 7 7l4 67l-4 145q0 3 -2 5t-5 2zM238 275q-3 0 -5 -2t-2 -5l-4 -141l4 -67q0 -7 7 -7q3 0 5 2t2 5l4 67
l-4 141q0 3 -2 5t-5 2z" />
    <glyph glyph-name="vine" unicode="&#xf1ca;" horiz-adv-x="384" 
d="M384 193v-52q-27 -6 -52 -6q-17 -36 -44 -72q-22 -30 -47 -55q-22 -22 -34 -29q-21 -12 -43 1t-47 43q-38 45 -65 113q-37 89 -52 209h75q12 -109 45 -187q26 -61 69 -115q45 45 76 107q-37 19 -58.5 58t-21.5 88.5t27.5 82t74.5 32.5q53 0 78 -35q20 -29 19 -76
q-1 -39 -15 -70l-13 -2q-15 0 -27 4q-16 5 -24 18q8 27 8 49t-7.5 34t-21 12t-22 -13t-8.5 -37q0 -38 17.5 -64.5t47.5 -36t65 -1.5z" />
    <glyph glyph-name="codepen" unicode="&#xf1cb;" horiz-adv-x="512" 
d="M502 288l-234 156q-12 8 -24 0l-234 -156q-10 -6 -10 -18v-156q0 -12 10 -18l234 -156q12 -8 24 0l234 156q10 6 10 18v156q0 12 -10 18zM278 385l172 -115l-77 -51l-95 63v103zM234 385v-103l-95 -63l-77 51zM44 229l55 -37l-55 -37v74zM234 -1l-172 115l77 51l95 -63
v-103zM256 140l-78 52l78 52l78 -52zM278 -1v103l95 63l77 -51zM468 155l-55 37l55 37v-74z" />
    <glyph glyph-name="jsfiddle" unicode="&#xf1cc;" horiz-adv-x="576" 
d="M511 211q-6 2 -7 10l-1 11q-3 26 -8 38q-17 49 -58 79.5t-92 34t-97 -21.5q-40 -23 -65 -64l-8 4q-47 19 -85.5 -9t-32.5 -77q0 -2 -1.5 -5t-3.5 -4q-29 -23 -40.5 -56.5t-1 -68t40 -57.5t65.5 -24q23 -1 69 -1h90q123 0 184 1q39 0 69 24.5t39 61.5t-6.5 71t-49.5 53z
M532 54q-29 -35 -72 -36q-40 -1 -120 0h-50q0 -1 -82 -1l-82 1q-68 0 -95 60q-14 30 -4.5 63.5t38.5 52.5q7 4 9.5 9t0.5 14q-8 39 26.5 62.5t72.5 3.5l4 -3q7 -3 10 -3t8 8q21 40 61 62q48 27 101.5 17.5t89.5 -48.5q38 -42 39 -102q0 -6 2 -9.5t8 -6.5q28 -13 43 -38
t13 -54t-21 -52zM444 134q-4 -23 -23.5 -39t-44 -16t-43.5 18l-37 37q-44 45 -59 56t-30.5 10t-29.5 -14q-18 -15 -18 -35.5t13.5 -36t33.5 -18.5t38 13l5 6q5 5 8 7q7 5 12.5 1.5t0.5 -12.5q-13 -19 -35 -27.5t-44 -1.5t-35.5 26t-13.5 44q3 38 36 56q17 10 34.5 9.5
t32.5 -11.5q26 -20 62 -60q15 -16 23 -23q12 -12 22 -18q19 -12 38.5 -7t30 23.5t6.5 36.5t-18 30t-32.5 12t-34.5 -15l-4 -4q-5 -6 -7 -7q-8 -5 -12.5 0t-0.5 10q16 22 37.5 29.5t45.5 -1t36 -30.5t7 -48z" />
    <glyph glyph-name="rebel" unicode="&#xf1d0;" horiz-adv-x="512" 
d="M257 -56q-69 0 -126 35q-56 34 -88 92.5t-30 126.5q2 60 32 112.5t85 87.5v1q1 0 1 -1q-7 -6 -19 -24q-17 -28 -27 -55q-13 -38 -8 -72q6 -42 40 -76q17 -17 35 -21q14 -3 28 1q11 4 20 11l7 7q13 17 16 41q2 18 -2 41q-3 15 -9 31l-6 13q-4 11 -16 21q-9 8 -20 14l-10 5
l29 32q11 -5 22 -15q8 -7 16 -16l5 -8q1 13 -5 29q-4 11 -11 23l-6 9l45 51l44 -50q-12 -18 -18 -42q-3 -12 -3 -21v0q8 15 26 29q10 7 17 11l29 -32q-18 -6 -33 -23q-8 -9 -13 -17v0q-14 -25 -16 -60q-2 -41 17 -67q11 -16 27 -19q13 -2 29 3q11 4 22 12l9 6q29 26 39 59
q8 28 2 60q-5 26 -18 54q-9 19 -22 38l-11 14q-4 4 -2 4l3 -1q34 -25 52 -42q29 -29 44 -64q19 -43 20 -99q1 -71 -30 -128t-86.5 -89t-125.5 -32z" />
    <glyph glyph-name="empire" unicode="&#xf1d1;" horiz-adv-x="496" 
d="M288 394q-16 3 -34 3v19q58 -2 106.5 -30.5t78.5 -76.5l-16 -9q-10 16 -20 27l-18 -15q-41 46 -102 58zM53 126l23 7q-10 29 -10 59.5t10 58.5l-23 7q6 16 14 31l-16 10q-27 -50 -27 -107t27 -107l16 10q-7 14 -14 31zM213 14q-61 12 -102 59l-18 -16q-12 14 -20 27
l-16 -9q29 -48 78 -76.5t107 -30.5v19q-15 0 -34 3zM93 327l18 -15q41 46 102 58l-4 24q15 3 33 3v19q-58 -2 -106.5 -30.5t-78.5 -76.5l16 -9q10 16 20 27zM403 57l-18 16q-41 -47 -102 -59l5 -24q-19 -3 -34 -3v-19q58 2 107 30.5t78 76.5l-16 9q-8 -13 -20 -27zM496 192
q0 -67 -33.5 -124t-90.5 -90.5t-124 -33.5t-124 33.5t-90.5 90.5t-33.5 124t33.5 124t90.5 90.5t124 33.5t124 -33.5t90.5 -90.5t33.5 -124zM484 192q0 64 -32 118t-86 86t-118 32t-118 -32t-86 -86t-32 -118t32 -118t86 -86t118 -32t118 32t86 86t32 118zM445 299l-16 -9
q8 -16 14 -32l-23 -7q10 -28 10 -58.5t-10 -59.5l23 -7q-6 -17 -14 -31l16 -9q27 49 27 106t-27 107zM262 121q24 5 41 23l51 -44q18 21 27 46l-64 23q4 11 4 23t-4 24l64 22q-9 25 -27 46l-51 -44q-17 18 -41 23l13 67q-13 3 -27.5 3t-26.5 -3l13 -67q-24 -5 -40 -23
l-52 44q-18 -21 -27 -46l64 -22q-3 -12 -3 -24t3 -24l-64 -22q9 -25 27 -46l52 44q15 -18 40 -23l-13 -67q14 -3 27 -3t27 3z" />
    <glyph glyph-name="git-square" unicode="&#xf1d2;" 
d="M140 100q30 0 30 -18.5t-27 -18.5q-31 0 -31 18t28 19zM115 216q0 -24 22 -24t22 25q0 16 -11 22.5t-22 0t-11 -23.5zM448 368v-352q0 -20 -14 -34t-34 -14h-352q-20 0 -34 14t-14 34v352q0 20 14 34t34 14h352q20 0 34 -14t14 -34zM207 274q-22 -8 -39 -8
q-19 11 -40.5 8t-36 -18.5t-14.5 -39.5q0 -14 8.5 -29t21.5 -20v0q-7 -3 -10 -12.5t-0.5 -19.5t11.5 -15v-1q-33 -11 -33 -40q0 -25 22 -37q17 -10 44 -10q65 0 65 54q0 19 -15 29q-8 6 -30 12q-14 3 -19 6q-8 5 -8 12q0 13 14 16q22 4 35 20t13 38q0 7 -3 15q8 2 14 4v36z
M264 273h-40q1 -8 1 -77t-1 -79h40q-1 10 -1 79t1 77zM268 326q0 10 -7 18t-17 8t-17 -8t-7 -18.5t7 -18t17 -7.5t17 8t7 18zM373 273h-37v5q0 16 1 24h-40q1 -6 1 -24v-5h-17v-34q8 1 13 0h4v0v0v-63q0 -29 7 -42q9 -19 35 -19q20 0 33 7v35q-9 -6 -21 -6q-16 0 -16 23v65
h37v34z" />
    <glyph glyph-name="git" unicode="&#xf1d3;" 
d="M19 226q0 -20 11.5 -41t29.5 -27v-1q-9 -4 -13.5 -17.5t-0.5 -27.5t15 -21v-1q-45 -15 -45 -56q0 -35 30 -52q24 -14 62 -14q90 0 90 76q0 27 -20 41q-12 8 -42 15q-20 6 -27 10q-12 6 -12 16t5 15t15 7q31 6 49 28.5t18 53.5q0 10 -4 21q11 3 20 6v50q-30 -12 -54 -12
q-27 16 -57 11.5t-50 -26t-20 -54.5zM107 63q41 0 41 -26t-38 -26q-43 0 -43 25.5t40 26.5zM103 192q-31 0 -31 34q0 17 9 27t21.5 10t21.5 -10t9 -27q0 -34 -30 -34zM432 143v-49q-18 -10 -45 -10q-37 0 -50 26q-10 19 -10 59v88v0v1h-5q-7 1 -19 -1v48h24v8q0 24 -1 33h56
q-1 -12 -1 -35v-6h51v-48l-51 1v-91q0 -33 22 -33q17 0 29 8v1zM286 379q0 -14 -10 -25t-24 -11t-24 11t-10 25.5t10 25.5t24.5 11t24 -11t9.5 -26zM280 305q-2 -11 -1.5 -107.5t1.5 -110.5h-56q2 14 2 110.5t-2 107.5h56z" />
    <glyph glyph-name="hacker-news" unicode="&#xf1d4;" 
d="M0 416v-448h448v448h-448zM21 219v0v0v0zM239 165v-101h-31v103l-80 153h37q42 -78 54 -112l6 -14l7 18q13 33 53 108h35z" />
    <glyph glyph-name="tencent-weibo" unicode="&#xf1d5;" horiz-adv-x="384" 
d="M72 -48q1 -9 -6 -13.5t-14.5 -1.5t-8.5 12q-9 95 20 178q26 78 81 136q-8 16 -3 34t19.5 30.5t34.5 12.5q22 0 38.5 -16.5t16.5 -38.5t-14 -37t-34.5 -18t-38.5 9q-51 -55 -74 -126q-25 -75 -17 -161zM192 448q-61 0 -107 -39q-43 -37 -56 -93q-13 -58 15 -110
q4 -9 12 -9t13 7t1 15q-22 45 -11 93q10 45 47 75.5t86 30.5q37 0 68.5 -18.5t50 -50t18.5 -68.5q0 -44 -26 -79q-24 -34 -63 -49t-79 -5q-9 2 -14 -4.5t-3 -14.5t11 -10q53 -11 102 9q45 19 73.5 61t28.5 92q0 46 -22.5 84t-61 60.5t-83.5 22.5z" />
    <glyph glyph-name="qq" unicode="&#xf1d6;" 
d="M434 28q-7 -1 -27 25q-10 14 -18 27v0q0 -25 -13 -51q-13 -29 -38 -50q20 -7 32 -14q20 -11 14.5 -20t-70.5 -9q-55 0 -90 4q-35 -4 -90 -4q-65 0 -70.5 9t14.5 20q12 7 32 14q-25 21 -38 50q-13 26 -13 51l-18 -27q-20 -26 -27 -25q-3 0 -5 10q-1 12 1 32q4 25 14 57
q8 28 31 84l9 22q-3 94 36 151q42 64 123.5 64t124.5 -63q39 -57 36 -152l9 -22q23 -57 31 -84q10 -32 14 -57q2 -20 1 -32q-2 -10 -5 -10z" />
    <glyph glyph-name="weixin" unicode="&#xf1d7;" horiz-adv-x="576" 
d="M385 280q10 0 19 -1q-8 39 -36.5 70t-70.5 49t-89 18q-53 0 -98 -22t-71 -60t-26 -83q0 -77 78 -132l-19 -59l68 35l11 -3q36 -7 57 -7q8 0 18 1q-6 20 -6 40q0 42 22 77.5t60 56t83 20.5zM281 333q11 0 17.5 -6.5t6.5 -17.5t-6.5 -17.5t-18 -6.5t-20.5 6.5t-9 17.5
t9 17.5t21 6.5zM144 285q-11 0 -20 6.5t-9 17.5t9 17.5t20 6.5t18 -6.5t7 -17.5t-7 -17.5t-18 -6.5zM563 129q0 38 -23 70.5t-61 51.5t-81 19q-46 0 -84 -19t-60 -51.5t-22 -71t22 -71t60 -51.5t84 -19q18 0 55 9l3 1l54 -29l-15 49q31 23 49 50q19 30 19 62zM344 153
q-7 0 -13 6t-6 13.5t6 13.5t13 6q11 0 17.5 -6t6.5 -13.5t-6.5 -13.5t-17.5 -6zM451 153q-7 0 -13 6t-6 13.5t6 13.5t13 6q10 0 17 -6t7 -13.5t-6.5 -13.5t-17.5 -6z" />
    <glyph glyph-name="slideshare" unicode="&#xf1e7;" horiz-adv-x="512" 
d="M249 237q0 -24 -18 -41t-43.5 -17t-43.5 17t-18 41t18 40.5t43.5 16.5t43.5 -16.5t18 -40.5zM504 187q-15 -19 -40 -37q-29 -20 -67 -35q16 -54 8 -96q-8 -37 -31 -59q-22 -20 -48.5 -23.5t-45 11t-17.5 43.5q0 -7 0 30v63l-14 3v-64q0 -39 0 -32q1 -29 -17.5 -43.5
t-45 -11t-48.5 23.5q-23 22 -31 59q-8 42 8 96q-38 15 -67 35q-25 18 -40 37q-4 6 -3 12.5t6.5 8t12.5 -3.5l7 -4v198q0 21 13.5 35.5t32.5 14.5h359q19 0 32.5 -14.5t13.5 -35.5v-198l6 4q7 5 12.5 3.5t6.5 -8t-3 -12.5zM457 376q0 25 -9 35t-32 10h-317q-24 0 -32.5 -9.5
t-8.5 -35.5v-193q41 -21 85 -27q26 -3 64 -1h8q20 1 27.5 -7t20.5 -17q2 26 34 24h7q39 -2 65 1q46 6 88 29v191zM331 294q-25 0 -43.5 -16.5t-18.5 -40.5t18.5 -41t44 -17t43.5 17t18 41t-18 40.5t-44 16.5z" />
    <glyph glyph-name="twitch" unicode="&#xf1e8;" 
d="M40 416l-30 -77v-314h107v-57h60l57 57h87l117 117v274h-398zM398 162l-67 -67h-107l-57 -57v57h-90v281h321v-214zM331 299v-117h-40v117h40zM224 299v-117h-40v117h40z" />
    <glyph glyph-name="yelp" unicode="&#xf1e9;" horiz-adv-x="384" 
d="M137 120l-3 -1q-107 -35 -113 -35q-10 1 -15 11q-4 7 -5 21q-2 21 0 46q3 20 6 30q6 15 19 14q4 0 85 -33l27 -11q9 -3 12 -12.5t-0.5 -18t-12.5 -11.5zM195 234q1 -19 -6.5 -28.5t-19 -6t-21.5 20.5l-107 168q-2 9 6 17q11 12 57.5 25t63.5 9q11 -3 14 -12q1 -6 6 -90z
M193 69v-1q1 -116 -1 -120q-4 -9 -15 -12q-15 -2 -51 11q-24 9 -35 17q-19 12 -14 26q2 5 55 67l22 26q6 8 15.5 8t17 -6.5t6.5 -15.5zM374 187q-4 -3 -85 -22l-34 -9l1 1q-9 -2 -17 3.5t-10 14.5t4 17l20 27q48 67 52 69q8 6 19 1q13 -6 34 -37t23 -47v-2q0 -11 -7 -16z
M384 56q-2 -15 -26 -45t-38 -36q-11 -4 -18 2q-3 2 -33 51l-32 52q-5 7 -2 16.5t11 14.5t17 2l56 -19q56 -18 59 -21q7 -6 6 -17z" />
    <glyph glyph-name="paypal" unicode="&#xf1ed;" horiz-adv-x="384" 
d="M111 152q-2 -13 -15 -94l-6 -40q-1 -2 -3 -2h-75q-5 0 -9 4t-3 10l59 371q1 8 6.5 12.5t13.5 4.5l73 1q67 0 85 -2q23 -1 46 -10q42 -17 52 -56q9 -35 -8 -84q-31 -89 -140 -91h-23q-27 1 -36 -2q-13 -5 -17 -22zM357 296q-1 1 -2 1t-1 -2q-3 -15 -9 -34q-17 -48 -53 -74
q-30 -20 -72 -27q-25 -3 -67 -3h-12q-10 0 -11 -9l-27 -170q-1 -5 2 -9t8 -4h64q6 0 11 4.5t6 10.5l15 91q3 14 9 18q4 2 16 2h4q121 0 143 112q12 66 -24 93z" />
    <glyph glyph-name="google-wallet" unicode="&#xf1ee;" 
d="M157 321q53 -85 84 -162q-12 -50 -31 -99q-13 50 -22 77q-14 40 -34 72q4 25 3 76v36zM109 248h-93q-5 0 -7 -4.5t1 -8.5q60 -77 91 -187h104q-14 57 -31 100q-21 51 -52 93q-5 7 -13 7zM157 336q59 -92 92 -174q41 -101 46 -194h114q-9 99 -48 197q-36 90 -95 171h-109z
M409 405q-1 5 -5.5 8t-9.5 3h-89q-4 0 -6 -3t-1 -7q20 -72 26 -146q74 -133 91 -271q25 97 25 203q0 102 -31 212v1z" />
    <glyph glyph-name="cc-visa" unicode="&#xf1f0;" horiz-adv-x="576" 
d="M470 217q5 -23 9 -45h-33l16 43l2 5l3 10zM576 368v-352q0 -20 -14 -34t-34 -14h-480q-20 0 -34 14t-14 34v352q0 20 14 34t34 14h480q20 0 34 -14t14 -34zM153 117l63 155h-43l-39 -106l-18 93q-3 12 -19 13h-64l-1 -3q23 -6 42 -17l36 -135h43zM247 117l25 155h-40
l-25 -155h40zM387 167q0 26 -34 43q-12 6 -17.5 10t-5 9t6 9t16.5 4q16 1 30 -6l4 -1l6 33q-17 7 -36 7q-30 0 -49 -14.5t-19.5 -38t35.5 -41.5q11 -5 16 -9.5t5 -9.5q0 -7 -7.5 -11t-18 -4t-18.5 1.5t-18 6.5l-5 3l-6 -35q17 -8 45 -9q31 0 50.5 14.5t19.5 38.5zM528 117
l-32 155h-31q-16 0 -21 -13l-60 -142h42l8 23h52l5 -23h37z" />
    <glyph glyph-name="cc-mastercard" unicode="&#xf1f1;" horiz-adv-x="576" 
d="M483 38q0 -5 -3 -8.5t-8 -3.5t-8 3.5t-3 8.5t3 8t8 3t8 -3t3 -8zM172 49q-5 0 -8 -3t-3 -8t3 -8.5t8 -3.5t8 3.5t3 8.5t-3 8t-8 3zM290 50q-9 0 -10 -9h19q-1 9 -9 9zM397 49q-5 0 -8 -3t-2.5 -8t3 -8.5t7.5 -3.5t8.5 3.5t3.5 8.5t-3.5 8t-8.5 3zM503 23v0v-2l-2 -2l-1 1
l-2 2l1 2l2 1h1zM501 22h1v1v1h-3v-3h1v1l1 -1h1zM576 367v-352q0 -20 -14 -34t-34 -14h-480q-20 0 -34 14t-14 34v352q0 20 14 34t34 14h480q20 0 34 -14t14 -34zM64 227q0 -37 18.5 -69t50.5 -50.5t69 -18.5q42 0 77 23q-36 29 -48.5 72t0.5 86t48 72q-35 24 -77 24
q-37 0 -69 -19t-50.5 -50.5t-18.5 -69.5zM288 119q34 26 46.5 67t0 82t-46.5 68q-34 -27 -46.5 -68t0 -82t46.5 -67zM146 42q0 7 -4 11t-12 4t-12 -7q-4 7 -11.5 7t-11.5 -5v4h-8v-37h8v9q0 12 1.5 17t7.5 4.5t7.5 -5t1.5 -16.5v-9h8l-1 9q0 12 1.5 17t7.5 4.5t7.5 -5
t1.5 -16.5v-9h8v23zM191 56h-8v-4q-5 5 -12.5 5t-12.5 -5.5t-5 -14t5 -14t13 -5.5t12 6v-5h8v37zM231 30q0 6 -5 9q-3 1 -10.5 2.5t-7.5 5t6.5 3.5t12.5 -3l3 6q-8 5 -19 3.5t-11 -11.5q0 -6 5 -8q2 -2 10 -3t8 -5t-7.5 -4t-13.5 4l-3 -6q8 -6 20 -4t12 11zM267 21l-3 7
q-4 -2 -8 -2t-4 6v17h13v7h-13v11h-8v-11h-8v-7h8v-17q0 -12 8.5 -13.5t14.5 2.5zM280 34h27q0 23 -17 23q-8 0 -13 -5.5t-5 -13.5q0 -15 12 -18.5t22 4.5l-4 6q-6 -5 -13.5 -4t-8.5 8zM339 56q-4 2 -8.5 1t-6.5 -5v4h-8v-37h8v21q0 8 4.5 9t8.5 -1zM350 38q0 8 6.5 10.5
t13.5 -2.5l4 7q-9 7 -21 2.5t-12 -17.5q0 -10 6 -15t14 -5t13 5l-4 6q-7 -5 -13.5 -2.5t-6.5 11.5zM416 56h-8v-4q-4 5 -11.5 5t-13 -5t-5.5 -14t6 -14.5t13 -5.5t11 6v-5h8v37zM450 56q-3 1 -8 0.5t-7 -4.5v4h-8v-37h8v21q0 7 4.5 8.5t8.5 -0.5zM490 71h-8v-19q-4 5 -11 5
t-13 -5t-6 -14t6 -14.5t13.5 -5.5t10.5 6v-5h8v52zM498 146v-5h1v5h2v1h-5v-1h2zM504 22v2l-3 2l-3 -1l-1 -1v-2v-1q0 -1 1 -1l1 -1h3zM508 147h-2l-1 -4l-2 4h-1v-6v0v5l2 -4h1l2 4v-5h1v6zM512 227q0 38 -18.5 69.5t-50.5 50.5t-69 19q-42 0 -77 -23q35 -29 48 -72.5
t0.5 -86.5t-48.5 -72q35 -23 77 -23q37 0 69 18.5t50.5 50.5t18.5 69z" />
    <glyph glyph-name="cc-discover" unicode="&#xf1f2;" horiz-adv-x="576" 
d="M83 236q0 -13 -9 -21q-7 -6 -22 -6h-4v54h4q15 0 22 -7q9 -7 9 -20zM505 264h-5v-25h5q15 0 15 12.5t-15 12.5zM576 368v-352q0 -20 -14 -34t-34 -14h-480q-20 0 -34 14t-14 34v352q0 20 14 34t34 14h480q20 0 34 -14t14 -34zM428 195h45v14h-29v22h28v14h-28v18h29v14
h-45v-82zM342 277l35 -84h8l36 84h-18l-22 -55l-22 55h-17zM259 235q0 -18 13 -31t31.5 -13t31.5 13t13 31.5t-13 31.5t-31.5 13t-31.5 -13t-13 -32zM191 236q0 -16 9.5 -27.5t24.5 -14.5t29 4v19q-9 -10 -20 -9.5t-19 8.5t-8 20t7.5 20t19 8t20.5 -9v19q-15 7 -29.5 3.5
t-24 -15t-9.5 -26.5zM157 208q-12 0 -18 10l-10 -9q9 -13 22.5 -15.5t24 5t10.5 21.5q0 10 -5 15t-19 10q-7 3 -9.5 5t-2.5 6q0 7 8.5 8.5t16.5 -6.5l8 11q-9 8 -21 9t-20.5 -5.5t-8.5 -17.5q0 -9 4.5 -14t16 -9t14.5 -10t-1 -10t-10 -4zM100 236q0 18 -12.5 29.5
t-32.5 11.5h-23v-82h23q22 0 34 14q11 11 11 27zM123 277h-16v-82h16v82zM544 160q-26 -16 -81 -43q-75 -36 -150 -64q-99 -37 -185 -53h401q6 0 10.5 4.5t4.5 10.5v145zM544 195l-26 35q19 3 19 23q0 17 -15 22q-9 3 -30 2h-8v-82h16v33h2l22 -33h20z" />
    <glyph glyph-name="cc-amex" unicode="&#xf1f3;" horiz-adv-x="576" 
d="M576 193h-10q-23 0 -30.5 -1t-13.5 -4v5h-22q-22 0 -28 -1q-9 -1 -15 -5v6h-79v-5q-6 3 -16 4q-8 1 -35 1h-24v-6q-10 6 -25 6h-58l-15 -18l-16 18h-83v-93h82l16 18l16 -18h49v23q23 0 34 7v-30h39l1 26h9v-26h63q64 0 75.5 0.5t17.5 3.5l1 1v-5h18q21 0 29 1q13 1 20 5
v-90q0 -20 -14 -34t-34 -14h-480q-20 0 -34 14t-14 34v204h27l6 15h19l7 -15h53v11l5 -11h29l5 11v-11h136v25h10v-25h66v9q11 -9 30 -9h27l6 15h19l7 -15h52v22l14 -22h41v92h-40v-19l-11 19h-43v-21l-9 21h-33h-2h-27q-19 0 -31 -9v9h-40v-5q-6 3 -16 4q-7 1 -32 1h-131
l-12 -30l-14 30h-46v-21l-9 21h-40l-23 -54v110q0 20 14 34t34 14h480q20 0 34 -14t14 -34v-175zM389 273q-1 -1 -1 -7.5t1 -7.5t4 -1l7 17h-3q-7 0 -8 -1zM370 142q6 -2 8.5 -6.5t2.5 -11.5l-1 -14h-16v12q0 8 -3 10.5t-12 2.5h-17l-1 -25h-16v69h39q27 0 27 -18
q0 -6 -3 -11t-8 -8zM363 158q0 7 -11 7h-20v-16h20q11 0 11 9zM545 165h30v14h-33q-10 0 -17 -5t-7 -15q0 -13 10 -18q5 -3 18 -3q8 -1 11.5 -2t3.5 -5q0 -6 -8 -6h-32v-15h32q16 0 22 9v26q-4 4 -11 6q-4 1 -12.5 1t-12 1t-3.5 5q0 7 9 7zM446 165v14h-55l-1 -69h56v14
l-39 1v14h38v14h-38v12h39zM488 125h-32v-15h32q26 0 26 22q0 13 -9 18q-6 2 -19 2q-8 0 -11.5 1t-3.5 6q0 6 9 6h31v15h-33q-11 0 -17.5 -5.5t-6.5 -15.5q0 -13 9 -18q6 -3 19 -3q7 0 11 -1.5t4 -5.5q0 -6 -9 -6zM410 284h-6q-14 0 -19 -2q-8 -4 -8 -18q0 -10 3 -15t13 -5
h7l24 55h24l28 -66v66h26l29 -48v48h17v-69h-24l-31 52v-52h-34l-6 15h-35l-6 -15h-19q-33 0 -33 34.5t34 34.5h16v-15zM424 259h23l-11 28zM352 299h-17v-69h17v69zM313 262q7 -3 9 -7t2 -12v-13h-16v7q0 10 -2.5 14t-12.5 4h-18v-25h-16v69h39q12 0 18 -3q9 -5 9 -16
q0 -6 -3 -11t-9 -8v1zM307 277q0 7 -11 7h-21v-15h21q11 0 11 8zM247 284v15h-55v-69h55v14h-39v14h38v14h-38v12h39zM163 230v54l-24 -54h-15l-24 54v-54h-34l-6 15h-35l-6 -15h-18l30 69h24l28 -66v66h27l22 -47l20 47h27v-69h-16zM54 259l-12 28l-11 -28h23zM307 157
q0 -17 -14 -21q-8 -3 -28 -3h-7v-23h-33l-20 23l-21 -23h-66v69h67l20 -22l21 22h53q28 0 28 -22zM194 145l-18 20h-41v-12h36v-14h-36v-14h40zM241 172l-25 -27l25 -28v55zM289 157q0 8 -10 8h-21v-17h21q10 0 10 9z" />
    <glyph glyph-name="cc-paypal" unicode="&#xf1f4;" horiz-adv-x="576" 
d="M186 190q0 -9 -6 -15.5t-14.5 -6.5t-13 4t-4.5 12t6.5 14.5t14.5 6.5t12.5 -4t4.5 -11zM81 238h-5q-3 0 -3 -2l-5 -27h9q9 0 14.5 3t7 12t-3 11.5t-14.5 2.5zM365 238h-5q-3 0 -3 -2l-4 -27h8q10 0 16 4t6 14q0 7 -6 10q-4 1 -12 1zM576 368v-352q0 -20 -14 -34t-34 -14
h-480q-20 0 -34 14t-14 34v352q0 20 14 34t34 14h480q20 0 34 -14t14 -34zM128 233q0 14 -9.5 21t-24.5 7h-40q-5 0 -6 -5l-16 -102q0 -2 1 -3t2 -1h19q2 0 3.5 1.5t2.5 4.5l4 26q1 6 15 5h3q22 0 34 12t12 34zM213 224h-19q-4 0 -5 -8v0q-7 10 -24 10t-30 -13.5t-13 -32.5
q0 -14 9 -23t23 -9q7 0 14.5 3.5t12.5 8.5q-1 -3 -1 -6.5t3 -3.5h17q4 0 6 6l10 64q0 1 -1 2.5t-3 1.5h1zM253 126l64 93v1q0 4 -3 4h-19q-3 0 -5 -3l-26 -39l-11 38q-2 4 -6 4h-18q-4 0 -4 -4l22 -62l-1 -1q-20 -28 -20 -31t3 -3h20q2 0 4 3zM412 233q0 14 -9.5 21t-24.5 7
h-40q-5 0 -6 -5l-16 -102q0 -2 1 -3t2 -1h21q3 0 4 3l4 29q1 6 15 5h3q22 0 34 12t12 34zM497 224h-19q-4 0 -5 -8v0q-6 10 -24 10t-30.5 -13.5t-12.5 -32.5q0 -14 8.5 -23t23.5 -9q7 0 14.5 3.5t11.5 8.5v-6q0 -4 3 -4h17q4 0 6 6l10 64q0 1 -1 2.5t-2 1.5zM544 257
q0 4 -3 4h-19q-3 0 -3 -3l-16 -105q0 -3 3 -3h17q1 0 3 1.5t2 4.5zM454 205q-9 0 -15.5 -6t-6.5 -14.5t4.5 -12.5t13 -4t14.5 6.5t6 14.5t-4.5 12t-11.5 4z" />
    <glyph glyph-name="cc-stripe" unicode="&#xf1f5;" horiz-adv-x="576" 
d="M397 192q0 -15 -6 -24.5t-16 -9.5t-17 7v53q6 7 16.5 7t16.5 -9.5t6 -23.5zM576 368v-352q0 -20 -14 -34t-34 -14h-480q-20 0 -34 14t-14 34v352q0 20 14 34t34 14h480q20 0 34 -14t14 -34zM122 167q0 17 -12 27q-7 6 -24 12q-10 3 -13 5q-5 3 -5 7q0 7 12 7q18 0 35 -9
v34q-16 6 -35 6q-22 0 -35 -10.5t-13 -29.5q0 -16 12 -25q7 -6 23 -12q10 -3 13 -5q6 -3 6 -8q0 -9 -14 -9q-17 0 -38 12v-34q18 -8 38 -8q23 0 36.5 10.5t13.5 29.5zM191 254h-27v31l-35 -8v-114q0 -15 10.5 -25.5t27 -10.5t24.5 4v29q-8 -3 -15 -2q-12 2 -12 15v51h27v30z
M265 254q-6 2 -14 1q-10 -2 -16 -12l-2 11h-31v-125h36v85q5 7 15 8q7 1 12 -1v33zM309 254h-36v-125h36v125zM309 301l-36 -7v-29l36 7v29zM432 192q0 30 -14.5 47t-34.5 17q-15 0 -27 -11l-2 9h-31v-166l35 8v40q13 -9 25 -9q21 0 34 16q15 17 15 49zM544 191
q0 29 -13.5 47t-38 18t-39.5 -18.5t-15 -46.5q0 -31 16 -47.5t43 -16.5q23 0 40 9v29q-16 -8 -35 -8q-26 0 -28 21h70v13zM492 227q-7 0 -12.5 -5.5t-5.5 -16.5h36q0 11 -5 16.5t-13 5.5z" />
    <glyph glyph-name="lastfm" unicode="&#xf202;" horiz-adv-x="512" 
d="M226 81l-19 51l-10 -9q-12 -10 -26 -16q-20 -9 -40 -9q-31 0 -50 25t-19 66q0 51 22 76q19 22 48.5 22t47.5 -13q15 -12 27 -38q7 -16 20 -58l8 -26q16 -48 46 -72q39 -30 109 -30q122 0 122 81q0 31 -16 51q-13 16 -39 26q-15 5 -49 12l-11 3q-19 4 -26 12t-7 22.5
t11 23t31.5 8t31.5 -9t13 -26.5l59 7q-7 74 -101 74q-45 0 -72 -18q-33 -21 -33 -66q0 -30 16 -49t52 -28l16 -3q35 -8 46 -14q18 -9 18 -28q0 -16 -15 -23.5t-46 -7.5q-41 0 -66 21q-20 18 -32 53l-7 22q-17 53 -28 74q-17 34 -44 49q-31 18 -82 18q-64 0 -98 -38.5
t-34 -108.5q0 -67 33 -102t95 -35q29 0 55 8q18 6 32 15z" />
    <glyph glyph-name="lastfm-square" unicode="&#xf203;" 
d="M400 416h-352q-20 0 -34 -14t-14 -34v-352q0 -20 14 -34t34 -14h352q20 0 34 14t14 34v352q0 20 -14 34t-34 14zM308 103q-44 0 -68 19q-19 15 -29 45l-5 16q-8 26 -13 36q-7 17 -17.5 25t-28.5 8t-30 -14q-14 -16 -14 -48q0 -26 12 -41.5t31 -15.5q13 0 25 6q9 4 17 10
l5 5l12 -31l-6 -6q-9 -5 -21 -9q-16 -5 -34 -5q-39 0 -59.5 22t-20.5 65t21.5 67t61.5 24q32 0 51 -11q17 -10 28 -31q6 -13 17 -47l4 -13q8 -22 20 -33q16 -13 42 -13q38 0 38 19q0 12 -12 18q-7 3 -28 8l-10 3q-23 5 -33 16.5t-10 31.5q0 27 21 41q16 11 45 11
q58 0 63 -47l-37 -4q-2 22 -29 22q-12 0 -19 -5t-7 -14t4.5 -14t16.5 -8l7 -1q32 -7 44 -15q21 -13 21 -41q0 -51 -76 -51z" />
    <glyph glyph-name="ioxhost" unicode="&#xf208;" horiz-adv-x="640" 
d="M616 288h-67q-29 68 -91 110t-138 42q-67 0 -124 -33.5t-90.5 -90.5t-33.5 -124q0 -25 5 -48h-53q-10 0 -17 -7t-7 -17t7 -17t17 -7h67q29 -68 91 -110t138 -42q67 0 124 33.5t90.5 90.5t33.5 124q0 24 -5 48h53q10 0 17 7t7 17t-7 17t-17 7zM520 192q0 -54 -27 -100
t-73 -73t-101 -27t-102 28.5t-73 75.5h280q10 0 17 7t7 17t-7 17t-17 7h-298q-6 24 -6 48q0 54 27 100t73 73t101 27t102 -28.5t73 -75.5h-280q-10 0 -17 -7t-7 -17t7 -17t17 -7h298q6 -24 6 -48zM216 216h208q10 0 17 -7t7 -17t-7 -17t-17 -7h-208q-10 0 -17 7t-7 17t7 17
t17 7z" />
    <glyph glyph-name="angellist" unicode="&#xf209;" 
d="M347 233q46 126 46 157q0 21 -12 35t-32 14q-25 0 -53 -55q-16 -30 -37 -90l-7 -19l-3 7q-55 166 -92 166q-23 0 -34.5 -14.5t-11.5 -37.5q0 -31 42 -149l5 -13q-12 5 -21 5q-17 0 -32.5 -17.5t-15.5 -35.5q0 -8 8 -28v-2q-27 -7 -39 -25t-12 -46q0 -37 21.5 -71.5
t57.5 -55.5q39 -22 86 -22q57 0 102 27q42 26 65.5 72.5t23.5 103.5q0 38 -9 59q-13 27 -46 35zM312 340q21 64 37 64q11 0 11 -16q0 -18 -46 -145l-1 -3l-34 6zM142 400q0 8 5.5 14t14.5 -5q12 -15 27 -56l34 -101l-5 1q-12 1 -17 1q-9 0 -13 -3l-1 1q-45 119 -45 148z
M140 204q13 0 30 -25q14 -20 26 -49q11 -26 11 -33q0 -4 -3 -8t-8 -4q-9 0 -29 21q-17 19 -32 43t-15 34q0 6 7 13.5t13 7.5zM324 18q-44 -49 -109 -49q-45 0 -78.5 23.5t-50.5 64.5q-8 21 -6 37q1 15 9 23.5t17 8.5t32 -31.5t23 -41.5q0 -4 -4.5 -6.5t-7.5 -2.5q-8 0 -16 7
q-5 5 -17 22l-18 23q-14 -14 -7 -36q7 -20 26.5 -35.5t38.5 -15.5t30.5 14t7.5 28h2h10q2 -59 42 -61l1 7q1 9 -4.5 25.5t-5.5 24.5q0 20 13 41q12 18 31 31q8 6 27 13.5t27 15.5q-2 21 -17 21h-6q-46 -1 -70 4q-44 9 -44 35q0 7 2.5 10t14.5 3q33 1 72 -6q50 -9 66 -23
q10 -8 13 -38q2 -33 -7 -67q-11 -41 -37 -69zM226 144q6 -2 20 -5l9 -1q-9 -7 -20 -19z" />
    <glyph glyph-name="buysellads" unicode="&#xf20d;" 
d="M224 297l43 -160h-86zM448 368v-352q0 -20 -14 -34t-34 -14h-352q-20 0 -34 14t-14 34v352q0 20 14 34t34 14h352q20 0 34 -14t14 -34zM383 43l-95 298h-128l-95 -298h91l112 91l24 -91h91z" />
    <glyph glyph-name="connectdevelop" unicode="&#xf20e;" horiz-adv-x="576" 
d="M551 207l-51 87q2 4 2 7q0 6 -4 10.5t-10 4.5l-56 96q1 3 1 5q0 6 -4.5 10.5t-11 4.5t-11.5 -6h-106q-5 6 -12 6t-12 -6h-106q-4 6 -11 6t-11.5 -4.5t-4.5 -10.5q0 -2 1 -5l-56 -97q-9 -4 -9 -14l1 -2l-54 -92q-5 -1 -8.5 -5t-3.5 -9.5t3.5 -10t8.5 -5.5l55 -95
q-1 -3 -1 -5q0 -5 3.5 -9.5t8.5 -5.5l52 -89q-1 -4 -1 -6q0 -6 4.5 -10.5t11 -4.5t11.5 5h106q5 -5 12 -5t12 5h107q4 -4 10.5 -4t11 4.5t4.5 10.5q0 2 -1 4l52 90q5 1 8.5 5.5t3.5 9.5q0 2 -1 5l55 95q5 1 8.5 5.5t3.5 10t-3 9.5t-8 5zM154 -3l-44 76h44v-76zM154 81h-44
l-1 3l45 48v-51zM154 144l-51 -54l-4 2l-56 96q1 2 1 4v4l52 90q4 0 7 2l51 -52v-92zM154 246l-46 47q2 4 2 8v1l44 16v-72zM154 326l-44 -15l44 75v-60zM480 287l1 -1l-35 -167l-64 67l98 102v-1zM292 93l11 -12h-22zM291 104l-83 86l80 84l83 -88zM297 98l79 82l68 -71
l-6 -28h-124zM410 404q3 -1 4 -2l58 -101q0 -4 2 -8l-98 -101l-83 88zM401 406l-113 -121l-57 61l166 60h4zM278 406q4 -5 10 -5t10 5h75l-148 -54l-51 54h104zM162 400l1 2l2 1l51 -54l-54 -20v71zM162 321l60 22l60 -63l-79 -85l-41 43v83zM162 228l36 -38l-36 -38v76z
M162 140l42 45l82 -86l-17 -18h-107v59zM169 -22q-3 3 -6 4l-1 1v90h99l-91 -95h-1zM298 -22q-4 5 -10 5t-10 -5h-97l92 95h38l92 -95h-105zM418 -10l-4 -7l-3 -2l-90 92h115zM431 12l13 61h22zM466 81h-20l4 21l17 -18zM532 189l-55 -97l-4 -2l-21 22l35 164l46 -79l-1 -5
v-3z" />
    <glyph glyph-name="dashcube" unicode="&#xf210;" 
d="M327 344h-217q-38 0 -64.5 -27.5t-26.5 -65.5v-230q0 -37 26.5 -61t64.5 -24h228q38 0 64.5 24t26.5 61v427zM154 32q-13 0 -23 9.5t-10 22.5v143q1 13 10.5 23t22.5 10h141q13 0 22.5 -9.5t9.5 -23.5v-123l51 -53h-224v1z" />
    <glyph glyph-name="forumbee" unicode="&#xf211;" 
d="M6 138q-6 26 -6 52q0 60 30 111.5t81 81.5t112 30q24 0 49 -5q-92 -36 -162 -106.5t-104 -163.5zM399 328q-21 26 -48 45q-112 -33 -194.5 -116.5t-115.5 -195.5q21 -30 45 -49q33 114 116.5 198.5t196.5 117.5zM415 75q23 38 29 83q-59 -32 -107 -81t-81 -110
q45 7 85 32q52 -20 107 -34q-16 62 -33 110zM444 220q-4 30 -16 57q-103 -34 -180 -112.5t-111 -182.5q26 -11 57 -15q35 86 100 152t150 101z" />
    <glyph glyph-name="leanpub" unicode="&#xf212;" horiz-adv-x="576" 
d="M387 337l15 -249h-11q-56 1 -103 -28q-45 28 -103 28q-32 0 -63 -8q-26 -6 -60 -20l31 258q44 19 92 19q61 0 103 -43q41 41 99 43zM569 0q-36 0 -70 16q-55 25 -108 25q-62 0 -103 -41q-41 41 -103 41q-53 0 -108 -25q-35 -16 -69 -16h-1l42 349q30 17 64.5 26t68.5 9
q64 0 106 -29q42 29 106 29q34 0 68.5 -9t64.5 -26zM526 45l-34 280q-47 21 -101 21q-62 0 -103 -38q-41 38 -103 38q-54 0 -101 -21l-34 -280q43 17 66 24q34 9 69 9q56 0 103 -29q47 29 103 29q35 0 69 -9q23 -7 66 -24z" />
    <glyph glyph-name="sellsy" unicode="&#xf213;" horiz-adv-x="640" 
d="M540 211q4 17 4 37q0 46 -22.5 84.5t-61 61t-84.5 22.5q-58 0 -103.5 -36t-59.5 -92q-24 21 -55 21q-35 0 -59.5 -25t-24.5 -59q0 -12 3 -23q-32 -15 -51.5 -45t-19.5 -64.5t16.5 -63t45 -45t61.5 -16.5h382q33 0 61.5 16.5t45 45t16.5 61.5q0 43 -26.5 76.5t-67.5 43.5z
M200 46q0 -6 -4.5 -10.5t-10.5 -4.5h-31q-7 0 -11.5 4.5t-4.5 10.5v111q0 7 4.5 11.5t11.5 4.5h31q6 0 10.5 -4.5t4.5 -11.5v-111zM289 46q0 -6 -4.5 -10.5t-10.5 -4.5h-31q-6 0 -10.5 4.5t-4.5 10.5v132q0 6 4.5 10.5t10.5 4.5h31q6 0 10.5 -4.5t4.5 -10.5v-132zM379 46
q0 -6 -4.5 -10.5t-10.5 -4.5h-31q-7 0 -11.5 4.5t-4.5 10.5v163q0 6 4.5 10.5t11.5 4.5h31q6 0 10.5 -4.5t4.5 -10.5v-163zM466 46q0 -6 -4.5 -10.5t-10.5 -4.5h-29q-6 0 -10.5 4.5t-4.5 10.5v225q0 6 4.5 11t10.5 5h29q6 0 10.5 -5t4.5 -11v-225z" />
    <glyph glyph-name="shirtsinbulk" unicode="&#xf214;" 
d="M395 226h11v-33h-11v33zM395 236h11v34h-11v-34zM395 150h11v33h-11v-33zM359 313h-34v-11h34v11zM395 107h11v33h-11v-33zM312 313h-34v-11h34v11zM264 313h-33v-11h33v11zM217 313h-33v-11h33v11zM395 279h11v34h-34v-11h23v-23zM139 20l31 -13l4 10l-30 13zM179 3
l30 -14l5 10l-31 14zM395 63h11v34h-11v-34zM60 55l31 -13l4 9l-30 14zM100 38l31 -14l4 10l-31 14zM232 -1l5 -10l30 14l-4 10zM351 51l4 -9l31 13l-4 10zM312 34l4 -10l31 14l-5 10zM272 17l4 -10l31 13l-5 10zM312 401h-34v-10h34v10zM406 401h-34v-10h34v10zM217 401
h-33v-10h33v10zM359 401h-34v-10h34v10zM264 401h-33v-10h33v10zM448 444v-406l-226 -98l-222 98v406h448zM419 327h-390v-270l193 -85l197 85v270zM419 415h-390v-58h390v58zM76 401h-34v-10h34v10zM170 401h-33v-10h33v10zM123 401h-34v-10h34v10zM130 165q0 38 27 64.5
t64.5 26.5t64.5 -26.5t27 -64.5t-26.5 -64.5t-64.5 -26.5t-65 26.5t-27 64.5zM251 147q0 -9 -13 -12q-8 -2 -20 -2q-28 0 -35 14h-1l-9 -18q19 -12 47 -12q19 0 33 6q18 8 18 26t-17 24q-10 4 -34 4q-14 0 -19 1q-8 2 -8 8q0 8 11 12q8 3 18 3t20 -3q11 -4 16 -10h1l8 17
l-4 1q-13 6 -19 7q-11 4 -21 4q-19 0 -32 -7q-17 -8 -17 -25t15 -23q9 -3 31 -3q16 -1 22 -2q9 -3 9 -10zM123 313h-34v-11h34v11zM53 302h23v11h-34v-34h11v23zM53 270h-11v-34h11v34zM170 313h-33v-11h33v11zM53 226h-11v-33h11v33zM53 140h-11v-33h11v33zM53 183h-11v-33
h11v33zM53 97h-11v-34h11v34z" />
    <glyph glyph-name="simplybuilt" unicode="&#xf215;" horiz-adv-x="512" 
d="M481 384h-106q-11 0 -18.5 -7.5t-7.5 -18.5v-40h-186v40q0 11 -7.5 18.5t-18.5 7.5h-106q-11 0 -19 -7.5t-8 -18.5v-332q0 -11 8 -18.5t19 -7.5h450q11 0 19 7.5t8 18.5v332q0 11 -8 18.5t-19 7.5zM150 92q-28 0 -47.5 19.5t-19.5 47t19.5 47t47 19.5t47 -19.5t19.5 -47
t-19.5 -47t-46.5 -19.5zM362 92q-27 0 -46.5 19.5t-19.5 47t19.5 47t47 19.5t47 -19.5t19.5 -47t-19.5 -47t-47.5 -19.5z" />
    <glyph glyph-name="skyatlas" unicode="&#xf216;" horiz-adv-x="640" 
d="M640 119q0 -33 -15.5 -59t-42.5 -41t-59 -15q-39 0 -74 19q-28 15 -58 47q-17 18 -49.5 59.5t-50.5 60.5q-29 30 -57 46q-33 18 -71 18q-52 0 -83 -33q-27 -30 -26.5 -73t28.5 -73q32 -33 86 -33q32 0 65.5 11.5t60.5 30.5l6 5q12 12 16.5 12t7.5 -3.5t3 -7.5
q0 -8 -18 -24v0q-32 -28 -73.5 -45t-82.5 -17t-76 18.5t-56 51.5t-21 75t20.5 76.5t55.5 53.5t77 19q46 0 86 -20q34 -17 67 -51q20 -20 56 -65q30 -37 45 -53q26 -27 49 -41q28 -16 59 -16q35 0 55 22q18 20 18 48.5t-18 47.5q-19 22 -52 22q-9 0 -28 -6q-13 -5 -19 -5
t-11 4.5t-5 10.5t3 18t3 19q0 49 -33.5 81.5t-83.5 32.5q-25 0 -47 -10q-13 -6 -30 -19q-10 -8 -13.5 -8t-6.5 3.5t-3 8.5t8 14q18 21 45.5 32.5t56.5 11.5q40 0 71.5 -18t49.5 -49.5t18 -70.5q0 -12 -1 -21q18 5 36 5q30 0 56 -14t41 -38.5t15 -54.5z" />
    <glyph glyph-name="pinterest-p" unicode="&#xf231;" horiz-adv-x="384" 
d="M204 442q-52 0 -99 -22.5t-75 -61.5q-30 -42 -30 -96q0 -33 11 -60q10 -23 25 -36.5t28 -13.5q6 0 11 15q4 12 4 20q0 3 -6 13q-8 13 -11 22q-6 16 -6 33q0 40 18 71t50.5 49t71.5 18q53 0 85.5 -29t32.5 -81q0 -31 -8 -63q-9 -39 -28 -62q-22 -28 -54 -28
q-19 0 -32.5 12.5t-13.5 31.5q0 12 4 28q2 9 9 28t9 28q4 16 4 29q0 24 -14 35t-33 7t-32 -20q-15 -19 -15 -48q0 -31 10 -50l-12 -48q-14 -55 -20 -83q-10 -48 -10 -78q0 -14 3 -42l1 -15l3 -3l4 2q31 42 43 69q8 20 21 72l8 32q9 -17 29 -26.5t40 -9.5q50 0 87 30
q33 27 51 74q16 43 16 91.5t-26 87.5q-24 36 -65.5 56.5t-88.5 21.5z" />
    <glyph glyph-name="whatsapp" unicode="&#xf232;" 
d="M381 351q-32 31 -72.5 48t-84.5 17q-60 0 -111 -30t-81 -81t-30 -111t30 -111l-32 -115l118 31q49 -27 106 -27v0q60 0 111.5 30t82 81t30.5 111q0 44 -17.5 84.5t-49.5 72.5zM224 9q-51 0 -94 26l-7 4l-70 -18l19 68l-4 7q-29 45 -29 98q0 50 25 92.5t67.5 67.5t92.5 25
q37 0 70.5 -14t60 -40.5t41.5 -60.5t15 -70q0 -50 -25.5 -92.5t-68.5 -67.5t-93 -25zM325 148q-30 15 -38 18q-4 1 -7 1t-5 -4q-5 -7 -18 -22q-4 -5 -12 -1q-28 14 -42 25q-19 15 -33 41q-3 3 -2 5.5t5 6.5q8 8 13 18q2 4 -1 10l-17 41q-2 6 -4.5 7.5t-6.5 1.5h-12
q-8 0 -15 -7l-1 -1q-18 -19 -18 -45t22 -57l2 -2q42 -60 93 -82q25 -11 40 -14q13 -2 27 0q9 1 21.5 9.5t16 17t4 16.5t-0.5 10t-8 5z" />
    <glyph glyph-name="viacoin" unicode="&#xf237;" horiz-adv-x="384" 
d="M384 416h-64l-81 -192h-94l-81 192h-64l48 -112h-48v-48h69l13 -32h-82v-48h103l89 -208l89 208h103v48h-82l14 32h68v48h-48zM192 112l-27 64h54z" />
    <glyph glyph-name="medium" unicode="&#xf23a;" 
d="M0 416v-448h448v448h-448zM372 310l-24 -23q-3 -3 -3 -7v-169q0 -4 3 -7l24 -23v-5h-118v5l24 24q2 2 2 6v137l-67 -171h-9l-79 171v-115q-1 -7 4 -13l32 -38v-5h-90v5l32 38q5 6 4 13v133q1 6 -4 10l-28 34v5h87l68 -148l59 148h83v-5z" />
    <glyph glyph-name="y-combinator" unicode="&#xf23b;" 
d="M448 416v-448h-448v448h448zM236 161l78 145h-33l-46 -91q-7 -14 -13 -27l-12 27l-45 91h-35l77 -144v-94h29v93z" />
    <glyph glyph-name="optin-monster" unicode="&#xf23c;" horiz-adv-x="576" 
d="M551 -2q0 -9 -10 -14t-22 -1q-10 2 -21.5 11t-15.5 17t2.5 19.5t16.5 10.5q13 -1 31.5 -16t18.5 -27zM373 373q-1 25 -18 42q-15 15 -37 18t-42 -6.5t-29 -30.5q33 19 66 12.5t60 -35.5zM75 41q-13 -1 -31.5 -16t-18.5 -27q0 -9 10 -14t23 -1q9 2 20.5 11t15.5 17
t-2 19.5t-17 10.5zM573 27q1 -7 1 -11q1 -15 -11 -30t-29.5 -25t-31.5 -10.5t-26 6t-18 17.5q-186 -6 -340 0q-6 -11 -18 -17.5t-25.5 -6t-31.5 10.5t-30 25t-11 30q0 6 1 11q-4 7 -3 10.5t9 0.5q4 6 11 14q-4 17 11 9q8 6 16 9q0 11 6 11t11 -5q16 2 27 -6v20q-12 0 -26 9
q-16 11 -20 27t2.5 28.5t22.5 19.5q1 4 5.5 9t9.5 6.5t9 -1.5t5 -8q17 0 21 -9l17 2q-4 3 -8 5q-7 11 -25 12v2q-16 1 -31 5q-16 5 -24 13q-10 12 -12 33t4.5 41t20.5 30q6 4 13.5 1t8.5 -11l1 -6q1 -13 5 -17t20 -3q13 12 27 20q-12 1 -36 -3l-8 -1l4 4q12 12 20 18
q13 10 33 21q39 19 76 23q-15 6 -49 14l-11 2q161 34 245 -37q26 -23 42 -60q18 -2 25.5 -0.5t10 6t3.5 14.5v5q1 8 8.5 11t14.5 -2q20 -14 24 -48q2 -15 0 -29q-3 -16 -11.5 -25t-24.5 -14q-14 -5 -30 -5v-3q-19 0 -26 -11q-3 -2 -8 -5l17 -2q1 4 7.5 6.5t13.5 2.5
q1 4 5 7.5t9 2.5t9.5 -6t5.5 -10q21 -9 25 -26q2 -11 0 -22q-4 -17 -20 -27q-14 -9 -26 -9v-20q11 8 27 6q5 6 11 5.5t6 -11.5q9 -4 16 -9q8 4 10.5 1.5t0.5 -10.5q8 -8 11 -14q7 3 8.5 -0.5t-2.5 -10.5zM499 281q22 -9 30 -36q1 10 -2 25q-4 18 -12 26q-5 5 -9.5 4.5
t-4.5 -5.5q0 -8 -2 -14zM480 268q10 -11 13 -28.5t0 -34.5q18 4 26 12q3 4 5 8q-1 17 -8.5 30.5t-21.5 18.5q-4 -4 -14 -6zM458 267q12 -31 15 -64q5 0 11 1q5 18 1 36t-15 27h-12zM78 281q-3 6 -3 14q0 5 -4.5 5.5t-9.5 -4.5q-7 -8 -11 -26q-4 -15 -2 -25q8 27 30 36z
M83 205q-3 17 0.5 34.5t12.5 28.5q-10 2 -14 6q-14 -5 -21.5 -18.5t-8.5 -30.5q3 -5 5 -8q8 -8 26 -12zM125 266q-5 -1 -15 -5l-12 -5v1q-6 -11 -7.5 -25.5t1.5 -27.5q7 -1 13 -1q4 33 20 63zM213 290q0 -32 22.5 -54.5t54 -22.5t53.5 22.5t22 54t-22 53.5t-53.5 22t-54 -22
t-22.5 -53zM365 192q4 -18 6 -42q2 -13 3.5 -16t7.5 0q11 6 17 25q5 16 6 32q-10 1 -30 1h-10zM294 193v0q-1 -7 0 -21q1 -18 4 -20q8 -4 25 -4t26 3q4 1 3 20q0 14 -1 22h-57zM280 193v0l-58 -1q-2 -10 -2 -28q-1 -22 4 -23q9 -4 26.5 -4.5t27.5 2.5q3 2 3 25q0 19 -1 29z
M194 135q4 -2 6.5 -1t3.5 5.5t2 23.5q1 21 3 29q-19 -1 -37 -2q-5 -16 0.5 -32t21.5 -23zM128 146q36 -38 71 -63q40 -28 85 -43q47 13 89 43q33 22 74 64q-10 4 -7 11v0l-26 3q-5 -16 -14 -27t-18.5 -13t-14.5 9q-2 4 -4 13l-1 3q-2 -5 -8 -7q-4 -1 -13 -1l-3 -1
q-29 -2 -44 3q-2 -8 -8 -11q-4 -2 -17 -3h-2q-48 -5 -55 11q0 -13 -9 -14.5t-20 5.5t-16 15.5t-7 17.5l-24 -2q2 -3 0.5 -6.5t-8.5 -6.5zM116 -6q-5 20 -14 35q-9 16 -20 19.5t-27.5 -4t-28 -21.5t-10.5 -29q9 -15 26.5 -25.5t32 -11t26 7.5t14.5 21q1 4 1 8zM123 0
q53 31 106 47q-27 14 -52 36q-19 15 -45 41l-8 -3q-1 -2 3 -5.5t2 -7.5q-3 -6 -15 -9q-3 -3 -8 -6v0q-1 -23 0 -41q15 -26 17 -52zM444 -12q-33 19 -56 30q-32 15 -60 23q-21 -10 -42 -16q-2 -1 -4 0q-18 6 -35 14q-57 -17 -113 -51v-1v1q144 -6 310 0zM471 52l-1 -1
q1 21 1 42q-4 2 -8 7q-11 2 -14 8t5 11l-1 2q-4 1 -7 3q-55 -51 -104 -76q54 -16 112 -48q1 12 5.5 26t11.5 26zM494 49q-10 -4 -19.5 -20t-14.5 -35q0 -17 12.5 -27t28 -9.5t33 11t26.5 25.5q2 15 -10 29t-28.5 21.5t-27.5 3.5v1zM291 314v0v0v0zM291 217q21 0 36.5 14
t15.5 34q0 18 -11.5 30.5t-28.5 17t-33 -2.5q8 -2 12.5 -8t4.5 -14q0 -11 -9 -17.5t-20 -5t-18 11.5q-5 -25 11 -42.5t40 -17.5zM68 -26q0 -5 7.5 -8.5t13.5 -1.5t11 7t7 10t-1 12t-9.5 6t-17.5 -10t-11 -15zM479 -1q-6 1 -9 -6t-1 -12t7.5 -10t11 -7t13 1.5t8 9t-11 14.5
t-18.5 10z" />
    <glyph glyph-name="opencart" unicode="&#xf23d;" horiz-adv-x="640" 
d="M423 7q0 -19 -13 -32t-32 -13t-32.5 13t-13.5 32t13.5 32.5t32.5 13.5t32 -13.5t13 -32.5zM169 53q-19 0 -32 -13.5t-13 -32.5t13 -32t32 -13t32.5 13t13.5 32t-13.5 32.5t-32.5 13.5zM461 323q-160 0 -236 7q-86 7 -136 28q-47 20 -89 64l11 -17q16 -28 29 -43
q22 -25 56 -42q42 -21 104 -31q72 -12 173 -11q89 1 134 -6q42 -8 50 -24q7 -13 -9 -36q-9 -14 -41 -47q-23 -24 -34 -37q-19 -21 -29 -39q28 25 79 69q64 54 85 75q32 33 32 51q-1 21 -42.5 30t-136.5 9z" />
    <glyph glyph-name="expeditedssl" unicode="&#xf23e;" horiz-adv-x="496" 
d="M248 405q-58 0 -106.5 -29t-77.5 -77.5t-29 -106.5t29 -106.5t77.5 -77.5t106.5 -29t106.5 29t77.5 77.5t29 106.5t-29 106.5t-77.5 77.5t-106.5 29zM151 272q0 40 28.5 68.5t68.5 28.5t68.5 -28.5t28.5 -68.5v-27q0 -4 -2.5 -6.5t-5.5 -2.5h-18q-4 0 -6.5 2.5t-2.5 6.5
v27q0 29 -19 46q-18 15 -43 15t-43 -15q-19 -17 -19 -46v-27q0 -4 -2.5 -6.5t-6.5 -2.5h-18q-3 0 -6 2.5t-3 6.5v27h1zM390 68q0 -7 -5.5 -12.5t-12.5 -5.5h-248q-7 0 -12.5 5.5t-5.5 12.5v142q0 7 5.5 12t12.5 5h248q7 0 12.5 -5t5.5 -12v-142zM142 205v-133q0 -4 -5 -4h-9
q-4 0 -4 4v133q0 5 4 5h9q5 0 5 -5zM283 157q0 -10 -4.5 -18t-12.5 -13v-31q0 -4 -2.5 -6.5t-6.5 -2.5h-18q-4 0 -6.5 2.5t-2.5 6.5v31q-8 5 -12.5 13t-4.5 18q0 14 10 24.5t25 10.5t25 -10.5t10 -24.5zM248 440q-67 0 -124 -33.5t-90.5 -90.5t-33.5 -124t33.5 -124
t90.5 -90.5t124 -33.5t124 33.5t90.5 90.5t33.5 124t-33.5 124t-90.5 90.5t-124 33.5zM248 -38q-62 0 -115 31t-84 84t-31 115t31 115t84 84t115 31t115 -31t84 -84t31 -115t-31 -115t-84 -84t-115 -31z" />
    <glyph glyph-name="cc-jcb" unicode="&#xf24b;" horiz-adv-x="576" 
d="M432 204v32q41 0 38 0v0q6 -1 9.5 -5.5t3.5 -11t-3.5 -10.5t-9.5 -5h-21h-17zM474 184h-22h-21v-35h21q20 0 22 1q6 1 10 5.5t4 11t-4 11t-10 6.5zM576 368v-352q0 -20 -14 -34t-34 -14h-480q-20 0 -34 14t-14 34v352q0 20 14 34t34 14h480q20 0 34 -14t14 -34zM182 256
h-57l1 -32q0 -30 -1 -42q-1 -18 -9 -27t-27 -9q-27 0 -57 15v-28q30 -9 68 -8v0q41 0 60 11q16 11 21 34q3 15 2 55zM361 251q-36 9 -71 8q-42 0 -66 -15q-28 -18 -28 -53t30 -52q25 -14 66 -14q35 -1 68 8v28q-24 -13 -49 -15t-41.5 9.5t-16.5 36.5t16.5 36.5t41.5 9.5
t49 -15v28h1zM544 162q0 13 -10.5 21.5t-27.5 10.5v0q14 2 22 10.5t8 20.5q0 13 -10 21.5t-27 9.5h-120v-128h123q18 0 30 9t12 25z" />
    <glyph glyph-name="cc-diners-club" unicode="&#xf24c;" horiz-adv-x="576" 
d="M240 368q-48 0 -88.5 -23.5t-64 -64t-23.5 -88t23.5 -88t64 -64.5t88 -23.5t88 24t64.5 64t24 88t-24 88t-64 64t-88 23.5zM200 89q-32 12 -52 40t-20 63t20 63.5t52 40.5v-207zM280 88v208q31 -12 51 -40.5t20 -63.5t-20 -63t-51 -41zM528 416h-480q-20 0 -34 -14
t-14 -34v-352q0 -20 14 -34t34 -14h480q20 0 34 14t14 34v352q0 20 -14 34t-34 14zM330 0h-91q-52 0 -96.5 25.5t-70.5 69.5t-26 95q0 56 26 101q26 44 70 68.5t97 24.5h91q52 0 98.5 -25t73.5 -68q28 -45 28 -101q0 -51 -28 -96q-28 -42 -74 -68t-98 -26z" />
    <glyph glyph-name="creative-commons" unicode="&#xf25e;" horiz-adv-x="496" 
d="M246 233l-33 -17q-6 12 -17 17q-5 3 -11 3q-33 0 -33 -44q0 -19 8 -31.5t25 -12.5q22 0 31 21l30 -15q-7 -14 -20 -24q-19 -15 -45 -15t-45 13q-29 20 -29 64q0 40 25 60q20 17 48 17q46 0 66 -36zM389 233l-33 -17q-6 12 -17 17q-5 3 -11 3q-33 0 -33 -44q0 -19 8 -31.5
t25 -12.5q22 0 31 21l31 -15v0q-7 -12 -17 -21q-21 -18 -48 -18t-46 13q-28 20 -28 64q0 40 25 60q20 17 47 17q46 0 66 -36zM248 440q-70 0 -128 -35q-55 -33 -87.5 -90t-32.5 -124t34 -125q34 -56 90.5 -89t122.5 -33t123 31.5t90 86.5q36 59 36 130q0 68 -32.5 125
t-88.5 89q-58 34 -127 34zM248 -11q-55 0 -101.5 28t-74 74.5t-27.5 100t26.5 100t71.5 74.5q48 29 104.5 29t103 -27t73.5 -73.5t27 -102.5q0 -59 -29 -107q-28 -44 -75 -70t-99 -26z" />
    <glyph glyph-name="gg" unicode="&#xf260;" horiz-adv-x="512" 
d="M179 218l103 -103l-103 -102l-179 179l179 179l45 -45l-26 -25l-19 19l-128 -128l128 -128l52 52l-77 76zM333 371l-103 -102l103 -103l25 26l-77 77l52 51l128 -128l-128 -128l-19 19l-26 -25l45 -45l179 179z" />
    <glyph glyph-name="gg-circle" unicode="&#xf261;" horiz-adv-x="512" 
d="M257 440q-67 0 -124 -33.5t-90.5 -90.5t-33.5 -124t33.5 -124t90.5 -90.5t124 -33.5t124 33.5t90.5 90.5t33.5 124t-33.5 124t-90.5 90.5t-124 33.5zM208 65l-126 126l126 126l35 -36l-24 -24l-12 11l-77 -77l77 -77l27 26l-53 53l24 25l78 -78zM307 67l-36 36l24 24
l12 -11l77 77l-77 77l-27 -26l53 -53l-24 -24l-77 77l75 75l125 -126z" />
    <glyph glyph-name="tripadvisor" unicode="&#xf262;" horiz-adv-x="576" 
d="M166 167q0 -9 -7 -16t-16.5 -7t-17 7t-7.5 16.5t7.5 16.5t17 7t16.5 -7t7 -17zM431 191q-10 0 -17 -7t-7 -16.5t7 -16.5t17 -7t17 7t7 16.5t-7 16.5t-17 7zM521 52q-31 -24 -69 -29.5t-73.5 9t-60.5 45.5l-31 -47l-30 46q-24 -30 -58.5 -43.5t-72 -9t-68.5 27t-46 58
t-11 73.5t27 69q-9 31 -28 58h90q45 27 95 41t102 13q51 1 100 -13t93 -41h96q-19 -26 -29 -57q23 -31 27.5 -68.5t-9.5 -72.5t-44 -59zM259 166q0 32 -15.5 58t-41.5 41.5t-57.5 15.5t-58 -15.5t-42 -42t-15.5 -57.5t15.5 -57.5t42 -42t58 -15.5t57.5 15.5t41.5 42
t15.5 57.5v0zM288 177q3 36 22 66t50 48t67 19q-67 29 -140 28.5t-140 -28.5q37 -1 68 -18.5t50.5 -48t22.5 -66.5zM540 205q-11 30 -34.5 49.5t-54 24.5t-59.5 -5.5t-48.5 -34.5t-25 -54t5.5 -59v0q11 -30 34.5 -49t53.5 -24.5t59.5 5.5t49 34.5t24.5 53.5t-5 59zM214 167
v0q0 -29 -21 -50t-50.5 -21t-50.5 21t-21 50.5t21 50.5t50.5 21t50.5 -21t21 -51zM189 167v1q0 19 -13.5 32.5t-33 13.5t-33 -13.5t-13.5 -33t13.5 -33t33 -13.5t33 13.5t13.5 32.5zM503 167v0q0 -29 -21 -50t-50.5 -21t-50.5 21t-21 50.5t21 50.5t50.5 21t50 -21t21.5 -51z
M478 167q0 20 -13.5 33.5t-33 13.5t-33 -13.5t-13.5 -33t13.5 -33t33 -13.5t33 13.5t13.5 32.5v0z" />
    <glyph glyph-name="odnoklassniki" unicode="&#xf263;" horiz-adv-x="320" 
d="M275 114q-33 -21 -90 -27l97 -97q13 -13 7 -29.5t-22.5 -23t-29.5 6.5l-77 77l-76 -76q-13 -13 -30 -7t-23 22.5t8 29.5l97 97q-59 6 -91 27q-27 18 -34 28q-9 13 0 31q6 13 20 16q16 4 34 -10l12 -8q15 -8 32 -14q25 -7 51 -7t51 7q17 6 32 14l12 8q18 14 35 10
q13 -3 20 -16q8 -18 -1 -31q-7 -10 -34 -28zM30 318q0 36 17.5 65.5t47.5 47t65 17.5t65 -17.5t47.5 -47t17.5 -65t-17.5 -65t-47.5 -47t-65 -17.5t-65 17.5t-47.5 47t-17.5 64.5zM96 318q0 -26 19 -44.5t45 -18.5t45 18.5t19 45t-19 45t-45 18.5t-45 -18.5t-19 -45.5z" />
    <glyph glyph-name="odnoklassniki-square" unicode="&#xf264;" 
d="M184 271q0 16 12 28t28 12t28 -12t12 -28.5t-12 -28t-28 -11.5t-28 11.5t-12 28.5zM448 368v-352q0 -20 -14 -34t-34 -14h-352q-20 0 -34 14t-14 34v352q0 20 14 34t34 14h352q20 0 34 -14t14 -34zM143 271q0 -34 23.5 -57.5t57.5 -23.5t57.5 23.5t23.5 57t-23.5 57.5
t-57.5 24t-57.5 -23.5t-23.5 -57.5zM317 180q-4 8 -13 10.5t-21 -6.5l-7 -5q-9 -5 -20 -9q-16 -4 -32 -4q-23 0 -43 9q-11 4 -16 9v0q-12 9 -21 6.5t-13 -10.5q-6 -11 0 -19q4 -7 21 -18q20 -13 57 -17l-61 -60q-8 -9 -4.5 -19t14 -14t18.5 4l48 48l48 -48q8 -8 18.5 -4
t14.5 14t-5 19l-60 60q35 4 56 17q17 11 21 18q6 8 0 19z" />
    <glyph glyph-name="get-pocket" unicode="&#xf265;" 
d="M408 384h-367q-17 0 -29 -12t-12 -29v-135q0 -61 30 -112.5t81.5 -81.5t112.5 -30t112.5 30t81.5 81.5t30 112.5v135q0 17 -11.5 29t-28.5 12zM246 116q-10 -9 -22 -9t-21 9l-98 93q-11 12 -14 17t-3 13q0 12 9 21t22 9q7 0 12 -2t15 -12l78 -75l78 75q11 10 15.5 12
t12.5 2q12 0 21 -9t9 -21q0 -8 -2.5 -13t-14.5 -18z" />
    <glyph glyph-name="wikipedia-w" unicode="&#xf266;" horiz-adv-x="640" 
d="M640 397v-12q-39 -1 -56 -41l-25 -57q-90 -210 -130 -301h-14l-82 193l-37 -71q-43 -82 -62 -122h-15q-23 55 -71.5 164t-71.5 165q-10 22 -32 45q-26 25 -44 24v14h162v-13q-18 -1 -33 -10q-17 -11 -10 -25l44 -101q67 -157 81 -187q9 18 45 86l30 57q-5 11 -29 65
q-35 79 -43 95q-7 11 -25 16q-11 3 -31 3v14h142v-13q-16 -1 -25.5 -7.5t-3.5 -18.5l24 -52q15 -34 24 -53l21 43q18 37 27 58q7 15 -2.5 22t-36.5 7l1 14h123v-13q-17 -1 -33 -9.5t-25 -22.5l-59 -123q4 -10 46 -104l23 -52l122 282q-5 15 -23 23q-12 5 -24 5v14l128 -1v0z
" />
    <glyph glyph-name="safari" unicode="&#xf267;" horiz-adv-x="512" 
d="M237 191q0 7 4.5 12.5t11.5 5.5t12.5 -4.5t5.5 -11.5t-4.5 -12.5t-11.5 -5.5t-12.5 4.5t-5.5 11.5zM504 192q0 -67 -33.5 -124t-90.5 -90.5t-124 -33.5t-124 33.5t-90.5 90.5t-33.5 124t33.5 124t90.5 90.5t124 33.5t124 -33.5t90.5 -90.5t33.5 -124zM477 192
q0 60 -29.5 111t-80.5 80.5t-111 29.5t-111 -29.5t-80.5 -80.5t-29.5 -111t29.5 -111t80.5 -80.5t111 -29.5t111 29.5t80.5 80.5t29.5 111zM405 95q0 -3 14 -10l2 -2q-20 -31 -51 -52.5t-67 -30.5l-4 18q0 3 -4 3q-2 0 -2.5 -1.5t-0.5 -2.5l4 -19q-20 -4 -40 -4
q-55 0 -103 29l2 4q10 15 10 17.5t-3 2.5t-12 -15l-3 -5q-32 21 -53.5 52t-30.5 68l19 4q3 1 3 3t-1.5 3t-2.5 1l-19 -4q-4 19 -4 38q0 57 30 105l4 -2q13 -9 15.5 -9t2.5 3t-14 12l-4 2q21 31 52.5 52.5t67.5 29.5l4 -19q1 -2 3.5 -2t3 1.5t0.5 2.5l-4 18q20 4 37 4
q57 0 105 -30v-1q-11 -15 -11 -18t3.5 -3t11.5 16l2 2q31 -21 52 -51.5t30 -66.5l-16 -4q-3 0 -3 -4q0 -1 1.5 -2t2.5 -1l16 4q4 -20 4 -39q0 -56 -29 -103l-5 4q-10 6 -11 6q-4 0 -4 -4zM372 338q-3 -3 -19 -18q-116 -107 -119 -112l-96 -160l16 15q118 110 121 114z" />
    <glyph glyph-name="chrome" unicode="&#xf268;" horiz-adv-x="496" 
d="M132 231l-77 117q35 44 86 68t106 24q67 0 125 -33q64 -37 97 -103l-205 11q-44 2 -81 -21t-51 -63zM164 192q0 -35 24.5 -59.5t59.5 -24.5t59.5 24.5t24.5 59.5t-24.5 59.5t-59.5 24.5t-59.5 -24.5t-24.5 -59.5zM479 281l-139 -7q28 -33 29 -76.5t-23 -80.5l-112 -173
q74 -4 138 33q53 31 85 81t38 109t-16 114zM134 144l-94 184q-40 -62 -40 -136q0 -61 27.5 -113.5t75.5 -87.5t107 -44l63 125q-42 -8 -80.5 12.5t-58.5 59.5z" />
    <glyph glyph-name="firefox" unicode="&#xf269;" horiz-adv-x="480" 
d="M478 213q-1 3 -1 7l-5 -6q-1 16 -6 32q-5 19 -14 37q-6 12 -14 23l-5 8q-5 7 -15.5 19.5t-15.5 20.5q-12 19 -15 41q-5 -13 -8 -27q-8 9 -22 21l-7 6q-13 13 -20 24q-6 8 -7 15v5l-9 -11q-10 -15 -17 -30q-10 -22 -13 -43q-3 -26 6 -49q13 -35 43 -58l11 -9
q21 -16 31 -27q15 -17 23 -40q-17 32 -49 51q10 -22 9 -47q1 -30 -14 -55t-40.5 -40t-55.5 -15q-13 0 -25 3q-14 3 -27 9q-19 12 -33 31v0l2 -1l14 -4q29 -6 56 7l7 4q12 7 17 9q7 3 12 1v0q7 -2 10.5 3t-1.5 11q-7 10 -19 14.5t-25 2.5q-5 -1 -14 -4q-13 -4 -20 -4
q-11 -1 -22 5l-4 3q-1 0 1.5 -0.5t1.5 -0.5q-7 4 -15 9l2 -0.5l2 -0.5q-9 6 -15 15q-7 12 -1 24q3 6 9 9l5 -2l-2 3v0q6 -2 12 -5q3 -2 5 -5v1q1 0 0 2q-1 4 -5 6l7 -4q3 7 2 14q1 4 -1 8q0 1 0.5 1.5t1.5 -0.5l-1 3l1 2l4 3q10 6 22 11l13 6l5 3q8 7 10 18v4q-1 3 -8.5 5
t-29.5 4q-9 2 -15 7.5t-8 13.5l-1 -3l1 4q9 24 31 38h-1.5h-1.5l9 4q1 0 -3.5 1.5t-10 1t-11.5 -2.5l4 2l2 1q-13 -3 -24 -9v2q-9 -4 -15 -11v2q-4 -3 -7 -7v0q-27 10 -55 5v0q-6 5 -9 11l-5 6l-2 5h-1q0 -1 -1 -1v0q-4 13 -4 26v0q-8 -5 -11 -14l-2 -5v3v1v0q-3 -3 -4 -6
l-2 -6v0v2v1l-1 -1q-10 -23 -12 -47q-1 -5 -1 -9v0q-6 -7 -12 -17q-18 -31 -27 -66q6 14 14 26q-16 -41 -16 -86q3 12 7 26q-3 -53 19 -101q30 -66 93 -104q25 -17 54 -26l7 -3l-2 1q34 -10 70 -10q52 0 87 16q18 9 26 19q7 6 10 13l8 4q19 8 35 22q26 18 33 48q5 11 1 22
l2 4q28 44 30 96v3q0 11 -2 22z" />
    <glyph glyph-name="opera" unicode="&#xf26a;" horiz-adv-x="496" 
d="M314 415q-61 0 -110 -37q-44 -34 -66.5 -90.5t-16.5 -116.5q7 -63 45 -111q29 -35 66 -55q39 -20 82 -20q53 0 99 30q-33 -30 -75.5 -46.5t-89.5 -16.5h-12q-65 3 -119 37t-85.5 90t-31.5 122t33.5 123t90.5 90.5t124 33.5h1q46 0 88.5 -16.5t75.5 -46.5q-45 30 -99 30z
M416 18q-31 -19 -66.5 -17.5t-65.5 22.5q42 16 69.5 65t27.5 112t-27 112t-70 65q31 21 66 22.5t67 -17.5q52 -49 70 -116t0 -132q-19 -68 -71 -116z" />
    <glyph glyph-name="internet-explorer" unicode="&#xf26b;" horiz-adv-x="512" 
d="M483 288q9 20 15 43q6 26 6 45q0 37 -25.5 56t-71.5 15q-49 -3 -112 -32q-53 3 -103 -20t-86 -67t-48 -100q69 79 122 101q-79 -70 -136 -173q-18 -32 -30 -69q-14 -44 -14 -76q0 -68 57 -74q49 -6 123 32q21 -10 50 -13q17 -2 52 -2q74 0 133.5 39t83.5 107h-121
q-19 -32 -53 -44q-31 -12 -65 -3.5t-56 32.5q-23 26 -23 62h329q5 34 -2 71t-25 70zM65 101q13 -38 39 -70.5t61 -52.5q-47 -26 -82 -24q-37 2 -45 37q-8 38 27 110zM181 210q1 41 31.5 68t71.5 27t72 -27t32 -68h-207zM365 398q46 22 73 22q23 0 38.5 -15t15.5 -39
q0 -14 -5 -34q-4 -18 -10 -34q-20 33 -48 59q-31 28 -64 41z" />
    <glyph glyph-name="contao" unicode="&#xf26d;" horiz-adv-x="512" 
d="M45 143q1 -3 2 -7q13 -63 23 -92q17 -46 44 -76h-80q-14 0 -24 10t-10 24v380q0 14 10 24t24 10h58q-21 -19 -37 -44q-21 -31 -26 -69q-5 -33 0 -74q4 -26 15 -78zM478 416h-90q32 -33 52 -84l-137 -29q-13 25 -30 36q-21 14 -52 8q-18 -4 -30.5 -13.5t-17.5 -21.5
q-8 -17 -8 -40q1 -31 15.5 -100t26.5 -99q9 -21 23 -33q10 -8 25.5 -11.5t33.5 0.5q30 6 44 28q11 17 13 45l137 30q5 -103 -57 -164h52q14 0 24 10t10 24v380q0 14 -10 24t-24 10z" />
    <glyph glyph-name="500px" unicode="&#xf26e;" 
d="M103 104q-5 11 -4 15t11 7.5t13 1.5t7 -10q8 -22 24 -40v94q1 37 29.5 64.5t68.5 27.5t69 -28.5t29 -68.5q0 -31 -18.5 -56.5t-48 -36t-62.5 -0.5q-5 2 -5 9.5t4.5 14t9.5 4.5q44 0 64 12q25 15 25 53q0 29 -21 47.5t-49 18.5t-47 -22q-13 -15 -16 -34q-3 -14 -2 -67
l1 -56q37 -24 82.5 -18t77.5 38q18 18 28 42t10 50.5t-10 50.5t-28.5 43t-42.5 29t-50.5 10t-51 -10t-42.5 -29q-15 -15 -21 -24l-1 -1q-3 -4 -7 -6t-13 0q-14 4 -14 12v187q0 4 3 7.5t7 3.5h242q8 0 8 -15.5t-8 -15.5h-224l1 -133q37 40 88 50q47 9 92 -8.5t73 -56.5
q29 -41 29 -93q0 -64 -39 -108q-36 -39 -91 -49.5t-104 12.5q-52 25 -76 82zM167 365q-1 -6 3.5 -15t10.5 -6q68 26 131 5q34 -12 70 -40q8 -5 9.5 -5t7 4t8 9.5t-1.5 8.5q-32 31 -76 46q-37 13 -77 14q-33 0 -60 -7q-24 -7 -25 -14zM393 33q-40 -40 -94 -53
q-51 -12 -101.5 2.5t-86.5 53.5q-38 42 -50 102q0 5 -7.5 6.5t-15 -2t-6.5 -8.5q9 -63 51 -111q40 -45 98.5 -65t118.5 -8q65 14 114 63q3 4 -0.5 10.5t-10 10t-10.5 -0.5zM214 141q0 -3 4 -7l1 -1q5 -4 9 -5v0q2 0 3 2l19 18l18 -18l4 -2q5 0 10.5 6.5t0.5 12.5l-17 17
l18 18q3 3 0 8t-8.5 8t-7.5 0l-18 -18l-18 18l-4 2q-4 0 -10 -7t-2 -11l18 -18l-19 -18q-1 -3 -1 -5z" />
    <glyph glyph-name="amazon" unicode="&#xf270;" 
d="M257 285q-61 -2 -103 -21q-66 -30 -66 -96q0 -39 22 -63q20 -22 52 -26.5t62.5 8t46.5 38.5q7 -11 45 -47l57 56l-8 7q-10 10 -16 20q-8 13 -8 26v147q0 15 -10 32q-12 22 -34 34q-28 16 -69 16t-73 -16q-29 -15 -45 -39t-16 -49l74 -7q10 31 33 43q11 6 21 6v0
q17 0 24.5 -6.5t9.5 -20.5q2 -9 1 -30v-12zM257 199q0 -29 -13 -44q-11 -14 -28.5 -14.5t-30 11t-12.5 29.5q0 32 29 46q22 11 55 12v-40zM393 35q-7 -9 -25 -22q-27 -18 -59 -30q-43 -15 -90.5 -15t-94.5 20q-38 15 -72 42q-26 20 -42 39q-5 5 -2 8t7 0l4 -2q54 -33 88 -46
q60 -24 121 -23q76 1 160 41q6 3 8.5 -1t-3.5 -11zM433 33q-9 -21 -21 -31q-4 -4 -6.5 -2.5t-0.5 6.5q6 11 10 26q7 23 3 29q-6 7 -45 3l-15 -1q-1 0 -2 1q-2 4 11.5 10t26.5 7.5t27.5 0t17.5 -5.5t1 -17.5t-7 -25.5z" />
    <glyph glyph-name="houzz" unicode="&#xf27c;" horiz-adv-x="414" 
d="M259 117h-105v-149h-154v448h110v-104l305 -86v-258h-156v149z" />
    <glyph glyph-name="vimeo-v" unicode="&#xf27d;" 
d="M448 294q-3 -65 -92 -179q-91 -119 -154 -118q-39 0 -67 72l-14 54q-23 86 -33 111q-15 40 -32 40q-5 0 -35 -21l-21 27l29 26q40 36 57 49q29 22 46 23q52 5 64 -71q16 -97 26 -132q11 -41 26 -39t42 44q28 45 30 68q3 31 -20 37q-18 5 -43 -6q33 108 126 105
q69 -2 65 -90z" />
    <glyph glyph-name="black-tie" unicode="&#xf27e;" 
d="M0 416v-448h448v448h-448zM317 91l-93 -89l-92 89l64 184l-64 86h184l-64 -86z" />
    <glyph glyph-name="fonticons" unicode="&#xf280;" 
d="M0 416v-448h448v448h-448zM167 220h68l-11 -37h-56v-117v-2.5t3 -1.5l44 -4v-25h-131v26l21 2q4 0 5.5 2t1.5 6v111q0 3 -6 3h-22v37h28v21q0 37 19 53.5t58 16.5q30 0 45 -10q20 -12 20 -43l-51 -6q1 14 -3 18.5t-13 4.5q-13 0 -16 -7q-3 -5 -3 -20v-24q0 -1 -1 -2.5
t0 -1.5zM364 33h-103v25l21 3q4 0 5.5 1.5t1.5 5.5v108q0 6 -6 8l-25 7l7 29h80v-152v-4v-2t3 -1l16 -3v-25zM342 289l9 -33l-7 -8l-31 17l-32 -17l-7 8l9 33l-22 24l4 10h28l15 28h9l16 -28h28l3 -10z" />
    <glyph glyph-name="reddit-alien" unicode="&#xf281;" horiz-adv-x="512" 
d="M440 245q-22 -1 -38 -16q-27 18 -62 29.5t-75 12.5l28 125l88 -20q0 -16 11.5 -27.5t28 -11.5t28 11.5t11.5 28t-11.5 28t-28.5 11.5q-11 0 -20.5 -6t-14.5 -16l-97 22q-4 1 -7 -1.5t-4 -5.5l-31 -138q-79 -3 -136 -43q-16 16 -38 16q-27 1 -42 -19t-10.5 -44t29.5 -37
q-3 -11 -3 -24q0 -42 28.5 -76.5t76.5 -55t105.5 -20.5t105.5 20.5t76.5 55t28.5 76.5q0 14 -3 25q24 12 28.5 36t-10.5 44t-42 20zM129 139q0 17 12 28.5t28 11.5t27.5 -11.5t11.5 -28t-11.5 -28t-27.5 -11.5t-28 11.5t-12 27.5zM344 46q-18 -18 -53 -24.5t-70 0t-53 24.5
q-3 2 -3 6t3 7t7 3t6 -3q14 -13 44 -18.5t60.5 -0.5t44.5 19q3 3 7 3t7 -3t3 -7t-3 -6zM343 100q-16 0 -27.5 11.5t-11.5 27.5t11.5 28t27.5 12t28 -11.5t12 -28t-12 -28t-28 -11.5z" />
    <glyph glyph-name="edge" unicode="&#xf282;" horiz-adv-x="512" 
d="M26 220v0v0v0zM486 204q0 71 -29 123q-30 54 -82 83.5t-116 29.5q-67 0 -119 -31q-48 -29 -78 -81q-28 -48 -36 -108q36 52 87 84q62 39 133 41l17 -1q21 -4 37 -12q23 -11 35 -31q14 -25 11 -61h-176q4 26 14 46q7 17 20 33q-58 -27 -89 -72q-32 -49 -31 -116
q0 -54 34 -103t86 -69q39 -15 89 -15q43 0 87 11q39 10 64 25v105q-30 -22 -76 -32t-89 -4q-47 7 -75 31q-31 27 -32 72h314v52z" />
    <glyph glyph-name="codiepie" unicode="&#xf284;" horiz-adv-x="472" 
d="M423 245q14 0 20.5 -13.5t0.5 -26.5t-22 -13h-11v-44h-26v97h38zM472 95q-32 -70 -89 -110q-60 -41 -135 -41q-67 0 -124 33.5t-90.5 90.5t-33.5 124t33.5 124t90.5 90.5t124 33.5q71 0 129 -37q54 -36 89 -101l-186 -109zM434 83l-61 31q-20 -34 -52 -53t-71.5 -19
t-73.5 20t-54 54.5t-20 75t20 74.5t54 54t75 20q36 0 65.5 -16.5t51.5 -46.5l59 34q-31 48 -77.5 74t-101.5 26q-60 0 -110 -29.5t-79.5 -79.5t-30 -110t29.5 -110t80 -79.5t109 -29.5t108 29t79 81z" />
    <glyph glyph-name="modx" unicode="&#xf285;" 
d="M356 206l37 -23v-215l-133 84zM440 373h-214l-23 -38l154 -96zM351 230l-296 186v-214l46 -29zM97 154l-89 -143h214l125 201z" />
    <glyph glyph-name="fort-awesome" unicode="&#xf286;" horiz-adv-x="512" 
d="M489 160h-27q-5 0 -5 -4v-32h-36v178q0 4 -5 4h-27q-5 0 -5 -4v-32h-37v32q0 4 -4 4h-28q-4 0 -4 -4v-32h-37v32q0 5 -10 4h-2v38q15 4 26 4q6 0 16 -2.5t16 -2.5q7 1 15 2q12 2 12 7v60q0 4 -4 4q-2 0 -9 -2q-10 -2 -15 -2t-16 2t-17 2q-11 0 -24 -3v5q9 4 9 14t-7.5 14
t-15.5 0t-8 -14t9 -14v-112h-2q-10 1 -9 -4v-32h-37v32q0 4 -5 4h-27q-5 0 -5 -4v-32h-36v32q0 4 -5 4h-27q-5 0 -5 -4v-178h-36v32q0 4 -5 4h-27q-5 0 -5 -4v-220h183v96q0 26 17 41q16 13 38 13t38 -13q17 -15 17 -41v-96h183v220q0 4 -5 4zM201 165q0 -5 -4 -5h-28
q-4 0 -4 5v64q0 4 4 4h28q4 0 4 -4v-64zM348 165q0 -5 -5 -5h-27q-5 0 -5 5v64q0 4 5 4h27q5 0 4 -4v-64h1z" />
    <glyph glyph-name="usb" unicode="&#xf287;" horiz-adv-x="640" 
d="M642 192q0 -5 -5 -8l-89 -53q-3 -1 -5 -1t-4 1q-5 2 -5 8v35h-238q8 -13 22.5 -45t21.5 -43q12 -19 25 -19h27v27q0 4 2.5 6.5t6.5 2.5h89q4 0 6.5 -2.5t2.5 -6.5v-89q0 -4 -2.5 -6.5t-6.5 -2.5h-89q-4 0 -6.5 2.5t-2.5 6.5v27h-27q-28 0 -50 28q-12 16 -30 57
q-13 30 -20 40q-12 17 -24 17h-101q-6 -23 -25 -38t-44 -15q-29 0 -50 21t-21 50t21 50t50 21q25 0 44 -15t25 -38h13q16 -1 22 1q10 3 18 15.5t22 43.5q18 40 32 57.5t30 22.5q10 3 36 2h11q6 16 19.5 26t30.5 10q22 0 38 -15.5t16 -38t-16 -38t-38 -15.5q-17 0 -30.5 10
t-19.5 26h-30q-13 0 -25 -19q-8 -11 -22 -43t-23 -45h311v35q0 5 4 8t9 0l89 -54q5 -2 5 -7z" />
    <glyph glyph-name="product-hunt" unicode="&#xf288;" horiz-adv-x="512" 
d="M326 229q0 -15 -11 -26t-26 -11h-70v74h70q15 0 26 -10.5t11 -26.5zM504 192q0 -67 -33.5 -124t-90.5 -90.5t-124 -33.5t-124 33.5t-90.5 90.5t-33.5 124t33.5 124t90.5 90.5t124 33.5t124 -33.5t90.5 -90.5t33.5 -124zM376 229q0 36 -25.5 61.5t-61.5 25.5h-120v-248h50
v74h70q36 0 61.5 25.5t25.5 61.5z" />
    <glyph glyph-name="mixcloud" unicode="&#xf289;" horiz-adv-x="640" 
d="M424 228q-4 42 -27 77t-60 55t-80 20q-54 0 -98 -31.5t-61 -82.5q-42 -6 -69.5 -37.5t-27.5 -74.5q0 -30 15.5 -56t41.5 -41.5t56 -15.5h290q39 0 67 28t28 67q0 34 -21 59.5t-54 32.5zM404 84h-290q-29 0 -50 20.5t-21 50t21 50t50 20.5t50 -21q10 -9 21 -5.5t15 15
t-6 20.5q-22 22 -52 30q15 33 46.5 53.5t68.5 20.5q34 0 63 -17t46 -46t17 -63q0 -20 -6 -40q-5 -13 3.5 -21t20.5 -6t16 14.5t6 25.5q15 -6 24.5 -19.5t9.5 -29.5q0 -22 -15.5 -37t-37.5 -15zM639 136q0 -67 -37 -123q-7 -9 -18.5 -9t-17.5 11t1 22q30 45 30 99t-30 99
q-8 11 -2 21t17.5 12t19.5 -10q37 -54 37 -122zM568 136q0 -48 -27 -88q-6 -9 -18 -9t-18 11t1 22q20 28 20 64t-20 65q-7 10 -1.5 20.5t17.5 12t19 -9.5q27 -39 27 -88z" />
    <glyph glyph-name="scribd" unicode="&#xf28a;" horiz-adv-x="384" 
d="M42 195q-24 29 -25 80q0 49 23 85q22 33 60 50.5t85 17.5q60 1 114 -24q29 -14 65 -43l5 -3l-50 -72l-38 24l27 39q-56 37 -123 36q-26 0 -52 -9t-42 -26q-18 -18 -18 -42q0 -13 7.5 -16t21.5 1q33 7 56 -14q19 -18 18.5 -45.5t-19.5 -46.5q-14 -15 -35.5 -19t-43 3
t-36.5 24zM360 189q-12 15 -28.5 22.5t-34.5 6.5q-29 2 -50 -18t-21 -49q-1 -27 19 -44q22 -23 56 -15q14 4 21.5 1t7.5 -16q0 -7 -2 -13q-12 -31 -43.5 -48t-77.5 -17q-39 0 -76 12.5t-68 35.5l33 39l-35 28l-61 -72l15 -14q40 -35 89 -54t102 -18q41 0 71 9q35 11 62.5 35
t38.5 63q10 35 4.5 70.5t-22.5 55.5z" />
    <glyph glyph-name="bluetooth" unicode="&#xf293;" 
d="M293 277l-43 -43l-1 86zM249 57l44 43l-43 43zM416 189q0 -100 -23 -157q-21 -53 -64 -76q-37 -20 -98.5 -20t-101.5 20q-47 23 -71 76q-26 58 -26 157q0 144 56 206q47 53 141 53q60 0 98 -22q44 -24 66 -79q23 -59 23 -158zM258 189l79 88l-125 135v-177l-74 73
l-27 -26l93 -93l-93 -93l27 -27l74 73l2 -170l127 128z" />
    <glyph glyph-name="bluetooth-b" unicode="&#xf294;" horiz-adv-x="320" 
d="M196 188l93 103l-146 157v-206l-86 86l-31 -32l108 -108l-108 -108l31 -32l86 86l3 -198l148 149zM237 291l-50 -50v100zM187 135l50 -50l-50 -50v100z" />
    <glyph glyph-name="gitlab" unicode="&#xf296;" horiz-adv-x="512" 
d="M30 248l226 -294l-248 184q-5 4 -7 10t0 12zM105 423q-2 7 -9 7t-10 -7l-56 -175h132zM162 248l94 -294l94 294h-188zM511 160l-29 88l-226 -294l248 184q5 4 7 10t0 12zM426 423q-3 7 -10 7t-9 -7l-57 -175h132z" />
    <glyph glyph-name="wpbeginner" unicode="&#xf297;" horiz-adv-x="512" 
d="M463 126q27 -32 22.5 -69t-35.5 -62q-33 -27 -79 -27q-30 0 -57.5 13t-42.5 37q-15 -1 -30 0q-15 -24 -42.5 -37t-57.5 -13q-46 0 -78 26t-36.5 63t22.5 69q-29 48 -26 101q3 50 34 93.5t82 68.5q53 27 117 27t118 -27q50 -25 81 -68.5t34 -93.5q3 -53 -26 -101zM123 209
h42v58h-42v-58zM340 123v23q-45 -15 -95.5 -6.5t-91.5 40.5v-25q38 -34 91.5 -43t95.5 11zM190 209h166v58h-166v-58z" />
    <glyph glyph-name="wpforms" unicode="&#xf298;" 
d="M448 373v-362q0 -18 -12.5 -30.5t-30.5 -12.5h-362q-18 0 -30.5 12.5t-12.5 30.5v362q0 18 12.5 30.5t30.5 12.5h362q18 0 30.5 -12.5t12.5 -30.5zM411 11v362q0 2 -2 4t-4 2h-9l-111 -75l-61 50l-61 -50l-110 75h-10q-2 0 -4 -2t-2 -4v-362q0 -2 2 -4t4 -2h362q2 0 4 2
t2 4zM150 262v-37h-73v37h73zM150 188v-38h-73v38h73zM161 335l54 44h-118zM371 262v-37h-196v37h196zM371 188v-38h-196v38h196zM287 335l64 44h-118zM371 113v-37h-99v37h99z" />
    <glyph glyph-name="envira" unicode="&#xf299;" 
d="M0 416q148 0 238 -40q76 -34 111 -96q27 -48 29 -112q1 -36 -8 -92q-3 -21 -3 -26l81 -82h-26l-70 71l-21 -3q-32 -6 -53 -7q-35 -1 -66 8q-40 11 -75 39q-32 26 -52 57q-17 28 -30 70q-9 26 -24 90q-18 76 -31 123zM80 370q-22 10 -23.5 8t8.5 -10l9 -7q29 -20 52 -52
q13 -19 35 -62l4 -6q31 -59 59 -96q41 -53 85 -72q34 -15 37 -15t-11 10l-20 14q-19 14 -48 57q-22 33 -43 73l-3 4q-20 39 -32 58q-20 30 -43 52q-28 26 -66 44z" />
    <glyph glyph-name="glide" unicode="&#xf2a5;" 
d="M253 299q0 -10 -4 -26l-17 -84q-1 -3 -3.5 -4t-7.5 -1h-3q-16 1 -24 16q-6 12 -6 30q0 25 9 47q10 26 29 36q8 4 15 4t9.5 -4.5t2.5 -13.5zM448 368v-352q0 -20 -14 -34t-34 -14h-352q-20 0 -34 14t-14 34v352q0 20 14 34t34 14h352q20 0 34 -14t14 -34zM384 181
q0 4 -11 21t-14 19q-6 2 -10 2q-14 0 -28 -6q-8 -3 -24 -12l-6 -4l-1 1q2 11 7 32q8 36 8 55q0 33 -17 48t-50.5 15t-60.5 -20q-22 -18 -36 -48q-12 -28 -12 -56q0 -40 23 -62.5t64 -22.5h6q1 0 1 -1v-1q-4 -28 -14 -46q-8 -16 -18 -22t-17.5 -3t-7.5 12q0 20 26 36l2 2
q0 5 -14.5 11t-21.5 6q-15 0 -25 -18q-8 -16 -8 -32q0 -25 14.5 -40t38.5 -15q34 0 61 30q24 26 34 62l8 38q1 3 4 4q17 9 28 12q15 5 30 5q8 0 24 -3l13 -3q1 0 2.5 1.5t1.5 2.5z" />
    <glyph glyph-name="glide-g" unicode="&#xf2a6;" 
d="M407 237q-9 4 -15 4q-23 0 -45 -9q-13 -5 -39 -21l-10 -5l-1 1q3 17 11 51q6 30 9 44q4 25 4 45q0 53 -27.5 77t-81.5 24t-96 -33q-37 -28 -58 -76q-19 -44 -19 -89q0 -66 36.5 -101.5t102.5 -35.5h5q4 0 5 -0.5t1 -2.5v-1q-6 -45 -22 -74q-13 -25 -30 -36q-15 -9 -27 -4
t-12 20q0 31 41 57q4 3 4 4q0 8 -25 18q-22 9 -34 9q-23 0 -39 -29q-13 -25 -13 -50q0 -39 23 -63.5t62 -24.5q37 0 70 23q30 20 52 55q21 32 30 67q5 23 10 47q3 13 4.5 16t5.5 5q27 14 45 20q23 7 48 7q13 0 38 -5l21 -3q3 0 5 1.5t2 3.5q0 6 -17.5 34t-23.5 30zM232 321
q-15 -71 -28 -134q-1 -6 -7 -7q-3 -1 -11 -1h-4q-26 0 -39 25q-10 19 -10 48q0 40 14 75q17 42 48 59q11 6 23 6t16 -8q3 -6 3 -21t-5 -42z" />
    <glyph glyph-name="viadeo" unicode="&#xf2a9;" 
d="M276 298v-1q-25 74 -71 151q31 -20 51 -67q17 -41 20 -84v1zM309 176q11 -27 11 -57q0 -39 -18 -71t-49.5 -50.5t-70.5 -18.5l4 1q55 34 82 86.5t27 118.5q0 57 -19 112q1 -12 1 -36q0 -91 -21 -160q-30 -94 -95 -120q-49 9 -80.5 47.5t-31.5 90.5q0 37 18 70t49 52.5
t69 19.5q26 0 49 -9q2 22 13 43q-29 10 -62 10q-59 1 -104 -32q-42 -30 -62.5 -80t-11.5 -102q8 -57 48 -99q33 -37 81.5 -49.5t96.5 0.5t82 49q40 43 48 101q8 53 -12 100q-20 -13 -42 -17zM418 436q-13 -27 -33 -41q-12 -8 -38 -16q-16 -5 -23 -9q-13 -5 -22 -14
t-14.5 -23.5t-5.5 -26.5q0 -20 12 -39q37 8 69 33q34 25 49 58q-1 -7 -7 -20q-25 -43 -100 -84q27 -26 55 -26q38 0 62 37q22 35 21.5 85t-25.5 86z" />
    <glyph glyph-name="viadeo-square" unicode="&#xf2aa;" 
d="M400 416h-352q-20 0 -34 -14t-14 -34v-352q0 -20 14 -34t34 -14h352q20 0 34 14t14 34v352q0 20 -14 34t-34 14zM281 67q-21 -23 -51.5 -31t-60.5 0t-51 31q-24 26 -30 61q-5 33 7.5 64.5t39.5 50.5q28 20 65 20q20 0 39 -7q-7 -13 -9 -27q-14 6 -31 6q-35 0 -59.5 -26.5
t-24.5 -62.5q0 -32 19.5 -56t49.5 -30q41 16 60 75q13 43 13 100v22q-16 46 -45 95q19 -13 32 -42q11 -26 13 -52v-1q12 -34 12 -70q0 -85 -69 -128h-2q37 -1 61.5 24.5t24.5 62.5q0 20 -7 36q14 3 27 10q12 -29 7 -62q-5 -36 -30 -63zM309 214q-18 0 -34 16q46 26 62 53
q4 8 4 12q-9 -20 -29.5 -35.5t-44.5 -20.5q-7 11 -7 24q0 8 3.5 17t9.5 15q8 7 28 14q16 5 24 10q12 9 20 26q16 -23 16 -54t-14 -54t-38 -23z" />
    <glyph glyph-name="snapchat" unicode="&#xf2ab;" horiz-adv-x="496" 
d="M248 440q-67 0 -124 -33.5t-90.5 -90.5t-33.5 -124t33.5 -124t90.5 -90.5t124 -33.5t124 33.5t90.5 90.5t33.5 124t-33.5 124t-90.5 90.5t-124 33.5zM418 101q-6 -12 -45 -18q-1 -1 -3 -8l-2 -8q-1 -6 -8 -6v0q-2 0 -8 1q-10 2 -18 2q-12 0 -20 -3q-6 -3 -17 -11
q-13 -9 -22 -13q-13 -6 -27 -6t-28 7q-8 3 -20 12h-1q-11 8 -17 11q-8 3 -20 3q-8 0 -18 -2l-8 -1q-7 0 -8 6l-2 8q-2 7 -3 8q-44 7 -45 21q0 3 1.5 5t4.5 3q29 4 50 30q12 13 18 27v0q4 8 1.5 13.5t-18.5 10.5l-5 2q-20 7 -17 18q1 6 8.5 9.5t12.5 0.5q9 -4 16 -4q4 0 7 2
l-1 7q-1 25 -1 37q1 21 6 33q14 32 45 46q19 8 39 8h6q27 0 50 -14t35 -40q5 -12 5 -33q1 -12 -1 -37v-7q2 -2 5 -2q7 1 15 5q6 2 14 0q10 -4 10 -13t-17 -16l-6 -2q-16 -5 -18 -10.5t1 -13.5h1q6 -14 17 -27q22 -25 51 -30q3 -1 4.5 -4t-0.5 -7h1z" />
    <glyph glyph-name="snapchat-ghost" unicode="&#xf2ac;" horiz-adv-x="512" 
d="M511 55q-8 -18 -68 -27q-1 -2 -3 -12l-3 -12q-3 -9 -12 -9v0q-4 0 -13 2q-15 3 -26 3q-19 0 -31 -5q-8 -4 -26 -16q-20 -14 -33 -20q-19 -8 -41 -7q-20 -2 -41 8q-13 6 -30 18l-1 1q-18 12 -26 16q-12 5 -31 5q-11 0 -27 -4q-8 -1 -12 -1q-9 0 -12 9l-3 11q-2 11 -3 13
q-68 10 -69 32q0 4 2.5 7.5t6.5 3.5q44 7 77 46q17 20 25 40v1q6 11 3 18t-12 11q-6 3 -17 7l-7 2q-29 12 -26 28q2 9 13.5 14t19.5 1q14 -6 24 -6q6 0 10 2l-1 12q-2 37 -2 56q1 31 8 48q22 49 68 69q28 13 59 13h10q41 0 74 -21q35 -21 53 -61q7 -17 8 -48q0 -19 -2 -55
l-1 -13q4 -2 9 -2q10 0 22 6q10 5 21 0v0q15 -5 15 -18q0 -14 -26 -25l-7 -2q-25 -8 -29 -18q-3 -7 3 -18v-1q8 -20 25 -40q33 -39 77 -46q5 -1 7.5 -5.5t0.5 -10.5z" />
    <glyph glyph-name="snapchat-square" unicode="&#xf2ad;" 
d="M400 416h-352q-20 0 -34 -14t-14 -34v-352q0 -20 14 -34t34 -14h352q20 0 34 14t14 34v352q0 20 -14 34t-34 14zM394 101q-6 -12 -45 -18q-1 -1 -3 -8l-2 -8q-1 -6 -8 -6v0q-2 0 -8 1q-10 2 -18 2q-12 0 -20 -3q-6 -3 -17 -11q-13 -9 -22 -13q-13 -6 -27 -6t-28 7
q-8 3 -20 12h-1q-11 8 -17 11q-8 3 -20 3q-8 0 -18 -2l-8 -1q-7 0 -8 6l-2 8q-2 7 -3 8q-44 7 -45 21q0 3 1.5 5t4.5 3q29 4 50 30q12 13 18 27v0q4 8 1.5 13.5t-18.5 10.5l-5 2q-20 7 -17 18q1 6 8.5 9.5t12.5 0.5q9 -4 16 -4q4 0 7 2l-1 7q-1 25 -1 37q1 21 6 33
q14 32 45 46q19 8 39 8h6q27 0 50 -14t35 -40q5 -12 5 -33q1 -12 -1 -37v-7q2 -2 5 -2q7 1 15 5q6 2 13 0q11 -4 11 -13t-17 -16l-6 -2q-16 -5 -18 -10.5t1 -13.5h1q6 -14 17 -27q22 -25 51 -30q3 -1 4.5 -4t-0.5 -7h1z" />
    <glyph glyph-name="pied-piper" unicode="&#xf2ae;" 
d="M32 29l-32 -60l1 328q0 32 16 59.5t43.5 43.5t59.5 16h327q-69 -22 -137 -67t-117 -102q-51 -59 -88 -109q-34 -46 -73 -109zM448 416q-11 -6 -23 -12q-28 -16 -54 -34q-36 -26 -62 -53q-32 -34 -47 -68q-8 -17 -19.5 -55t-19.5 -56q-13 -29 -32 -48q-14 -13 -34 -23
q-12 -7 -38 -18q-23 -9 -34 -15q-21 -11 -44 -28q-28 -21 -41 -38h329q32 0 59.5 16t43.5 43.5t16 59.5v329z" />
    <glyph glyph-name="first-order" unicode="&#xf2b0;" 
d="M13 219v0v0v0zM224 351q-11 0 -21 -1l3 -68l-22 64q-21 -5 -40 -16l30 -62l-45 51q-18 -14 -31 -31l51 -45l-61 30q-12 -20 -17 -40l64 -23l-68 4q-1 -11 -1 -21t1 -23l68 4l-64 -22q5 -21 16 -41l62 30l-51 -45q14 -19 31 -31l45 51l-30 -61q19 -12 40 -17l22 64l-4 -68
q11 -1 22 -1t22 1l-4 69l22 -65q23 6 40 17l-29 61l45 -51q18 14 30 31l-50 45l61 -29q11 19 17 40l-64 22l67 -4q1 9 1 22t-1 22l-68 -4l64 22q-6 23 -16 41l-61 -30l50 45q-13 18 -30 31l-45 -51l29 61q-19 12 -40 17l-22 -64l4 68q-10 1 -22 1zM443 320v-256l-219 -128
l-219 128v256l219 128zM426 310l-202 117l-202 -117v-235l202 -118l202 118v235zM224 411l188 -109v-219l-188 -110l-188 110v218zM224 360q-45 0 -83.5 -22.5t-61 -61t-22.5 -84.5t22.5 -84.5t61 -61t83.5 -22.5t83.5 22.5t61 61t22.5 84.5t-22.5 84.5t-61 61t-83.5 22.5z
" />
    <glyph glyph-name="yoast" unicode="&#xf2b1;" 
d="M91 372h186l-7 -19h-179q-29 0 -50.5 -20.5t-21.5 -49.5v-206q0 -29 20 -48q23 -22 64 -22v-19h-12q-37 0 -64 26.5t-27 62.5v206q0 37 26.5 63t64.5 26zM320 428h67l-71 -187q-42 -113 -56 -147q-19 -49 -31 -70q-10 -18 -27 -35q-30 -31 -78 -33v51q33 5 51 31
q13 20 13 44l1 1q0 11 -5 24.5t-33 84.5l-45 114h62l50 -157zM448 287v-299h-214q10 14 12 19h183v280q0 45 -49 62l7 18q31 -10 46 -31t15 -49z" />
    </font>
</defs>
</svg>
